<?xml version="1.0" encoding="utf-8" ?>
<svg
  xmlns="http://www.w3.org/2000/svg"
  height="512pt"
  version="1.1"
  viewBox="0 0 512 512"
  width="512pt"
>
<path
    d="M 0.00 0.00 L 512.00 0.00 L 512.00 512.00 L 0.00 512.00 L 0.00 0.00 Z"
    fill="#8edbf3"
    opacity="1.00"
    stroke="#8edbf3"
    stroke-width="0.25"
  />
<path
    d="M 84.05 69.01 C 82.12 66.98 81.69 63.88 82.83 61.35 C 86.75 63.20 89.53 66.78 91.59 70.49 C 92.66 71.83 92.25 73.46 91.15 74.63 C 88.04 74.06 86.00 71.28 84.05 69.01 Z"
    fill="#f1fcfc"
    opacity="1.00"
    stroke="#f1fcfc"
    stroke-width="0.25"
  />
<path
    d="M 141.87 66.80 C 142.33 66.63 143.23 66.28 143.68 66.11 C 145.79 69.66 144.00 73.98 142.24 77.29 C 141.81 78.51 140.61 78.75 139.47 78.68 C 137.32 74.66 139.54 70.18 141.87 66.80 Z"
    fill="#def4fa"
    opacity="1.00"
    stroke="#def4fa"
    stroke-width="0.25"
  />
<path
    d="M 182.25 75.32 C 188.51 73.14 195.40 73.75 201.87 74.59 C 212.01 75.91 221.67 81.13 227.87 89.33 C 226.13 89.00 224.59 88.11 223.14 87.16 C 213.02 77.02 197.47 74.90 183.85 76.80 C 183.59 76.86 183.08 76.99 182.82 77.05 C 183.38 77.63 184.50 78.78 185.06 79.35 C 183.21 79.33 181.37 79.43 179.54 79.58 C 177.63 81.13 177.13 83.48 177.47 85.83 C 174.91 81.85 178.12 76.61 182.25 75.32 Z"
    fill="#0c2e43"
    opacity="1.00"
    stroke="#0c2e43"
    stroke-width="0.25"
  />
<path
    d="M 183.85 76.80 C 197.47 74.90 213.02 77.02 223.14 87.16 C 215.02 81.77 205.90 77.08 195.96 76.74 C 191.93 76.57 187.87 76.41 183.85 76.80 Z"
    fill="#98d8e2"
    opacity="1.00"
    stroke="#98d8e2"
    stroke-width="0.25"
  />
<path
    d="M 182.82 77.05 C 183.08 76.99 183.59 76.86 183.85 76.80 C 187.87 76.41 191.93 76.57 195.96 76.74 C 205.90 77.08 215.02 81.77 223.14 87.16 C 224.59 88.11 226.13 89.00 227.87 89.33 L 227.95 89.35 C 235.34 99.09 240.36 110.59 242.92 122.52 C 252.80 121.77 262.73 122.10 272.60 122.77 C 285.12 104.24 305.56 91.21 327.73 88.06 C 328.17 88.40 329.04 89.10 329.47 89.45 C 326.18 90.17 322.89 90.86 319.66 91.81 C 329.48 90.54 339.38 88.79 349.33 89.86 C 347.93 90.87 346.47 91.75 345.02 92.66 C 343.73 92.28 342.40 92.02 341.06 92.08 C 322.93 92.35 304.46 97.68 290.29 109.29 C 285.44 113.24 281.25 117.93 277.54 122.95 C 292.57 125.23 307.16 130.78 319.40 139.89 C 318.32 140.40 317.23 140.90 316.16 141.41 C 317.06 142.32 317.96 143.22 318.87 144.13 C 318.44 144.43 317.59 145.01 317.17 145.31 C 316.18 144.52 315.18 143.76 314.17 143.03 C 309.33 138.93 303.51 136.31 297.65 134.05 C 300.02 140.29 302.51 146.51 305.51 152.49 C 306.39 154.43 307.23 156.42 307.53 158.56 C 306.10 155.52 304.30 152.69 302.33 149.99 C 299.50 145.30 297.44 140.20 295.97 134.94 C 295.65 132.11 292.39 132.08 290.35 131.12 C 285.23 129.46 279.94 128.19 274.55 127.86 L 274.52 127.85 L 273.27 127.69 C 268.41 127.21 263.54 126.94 258.68 126.72 C 259.66 133.88 255.91 140.77 250.11 144.79 L 248.65 144.80 C 253.04 141.39 256.34 136.54 257.36 131.03 C 257.47 129.74 257.57 128.45 257.67 127.16 C 247.94 127.21 237.85 127.21 228.58 130.47 C 227.80 135.15 228.76 139.94 230.94 144.13 C 231.87 146.23 233.44 147.96 235.16 149.46 C 235.19 150.55 235.22 151.63 235.25 152.72 C 229.30 148.89 227.13 141.77 225.36 135.33 C 225.19 134.30 224.86 132.25 224.70 131.22 C 207.27 137.07 191.61 148.11 180.29 162.61 C 177.69 162.92 176.17 165.06 174.56 166.85 C 173.88 165.97 173.17 165.10 172.47 164.23 C 180.68 152.96 190.79 142.92 202.89 135.85 C 213.84 129.64 225.81 124.74 238.38 123.19 C 235.86 113.22 232.15 103.38 226.06 95.00 C 219.50 86.70 209.10 82.52 199.08 80.18 C 195.37 79.56 191.61 78.76 187.84 79.38 C 187.14 79.37 185.75 79.36 185.06 79.35 C 184.50 78.78 183.38 77.63 182.82 77.05 Z"
    fill="#0b4852"
    opacity="1.00"
    stroke="#0b4852"
    stroke-width="0.25"
  />
<path
    d="M 179.54 79.58 C 181.37 79.43 183.21 79.33 185.06 79.35 C 185.75 79.36 187.14 79.37 187.84 79.38 C 189.36 80.10 192.00 79.38 192.81 81.08 C 191.61 80.99 190.41 80.92 189.21 80.85 C 189.14 83.78 189.35 86.72 190.09 89.56 C 186.99 90.04 183.49 90.08 180.90 88.03 C 178.41 85.95 178.59 81.49 181.69 80.06 C 181.15 79.94 180.08 79.70 179.54 79.58 Z"
    fill="#f8e224"
    opacity="1.00"
    stroke="#f8e224"
    stroke-width="0.25"
  />
<path
    d="M 177.47 85.83 C 177.13 83.48 177.63 81.13 179.54 79.58 C 180.08 79.70 181.15 79.94 181.69 80.06 C 178.59 81.49 178.41 85.95 180.90 88.03 C 183.49 90.08 186.99 90.04 190.09 89.56 C 193.44 88.27 193.68 84.51 193.35 81.45 C 193.68 81.55 194.35 81.74 194.69 81.83 C 197.11 85.32 194.35 89.64 190.92 91.02 C 186.80 92.43 182.27 91.34 178.81 88.83 C 178.37 87.83 177.92 86.83 177.47 85.83 Z"
    fill="#b0a756"
    opacity="1.00"
    stroke="#b0a756"
    stroke-width="0.25"
  />
<path
    d="M 189.21 80.85 C 190.41 80.92 191.61 80.99 192.81 81.08 L 193.35 81.45 C 193.68 84.51 193.44 88.27 190.09 89.56 C 189.35 86.72 189.14 83.78 189.21 80.85 Z"
    fill="#fabf05"
    opacity="1.00"
    stroke="#fabf05"
    stroke-width="0.25"
  />
<path
    d="M 194.69 81.83 C 195.12 81.48 196.00 80.79 196.43 80.44 C 199.64 86.57 193.43 93.89 187.03 93.62 C 183.86 93.72 179.54 92.28 178.81 88.83 C 182.27 91.34 186.80 92.43 190.92 91.02 C 194.35 89.64 197.11 85.32 194.69 81.83 Z"
    fill="#82b7bb"
    opacity="1.00"
    stroke="#82b7bb"
    stroke-width="0.25"
  />
<path
    d="M 327.73 88.06 C 337.51 86.44 347.63 85.81 357.42 87.72 C 360.74 88.35 364.72 90.04 365.18 93.88 C 364.94 97.07 363.98 100.34 361.42 102.44 C 361.06 102.45 360.33 102.46 359.97 102.47 C 359.53 102.48 358.65 102.50 358.22 102.51 C 359.40 102.21 360.58 101.92 361.75 101.52 C 364.04 99.98 363.51 97.12 363.73 94.76 C 362.15 93.11 360.36 91.67 358.30 90.67 C 355.90 89.26 353.08 89.29 350.40 89.12 C 343.42 88.05 336.45 89.38 329.47 89.45 C 329.04 89.10 328.17 88.40 327.73 88.06 Z"
    fill="#0c2e43"
    opacity="1.00"
    stroke="#0c2e43"
    stroke-width="0.25"
  />
<path
    d="M 329.47 89.45 C 336.45 89.38 343.42 88.05 350.40 89.12 C 350.13 89.31 349.60 89.68 349.33 89.86 C 339.38 88.79 329.48 90.54 319.66 91.81 C 322.89 90.86 326.18 90.17 329.47 89.45 Z"
    fill="#388d8d"
    opacity="1.00"
    stroke="#388d8d"
    stroke-width="0.25"
  />
<path
    d="M 350.40 89.12 C 353.08 89.29 355.90 89.26 358.30 90.67 C 355.40 90.88 352.41 90.65 349.61 91.56 C 348.48 92.30 347.39 93.08 346.31 93.88 C 345.79 94.27 344.74 95.06 344.22 95.45 C 344.42 94.76 344.82 93.36 345.02 92.66 C 346.47 91.75 347.93 90.87 349.33 89.86 C 349.60 89.68 350.13 89.31 350.40 89.12 Z"
    fill="#4b6034"
    opacity="1.00"
    stroke="#4b6034"
    stroke-width="0.25"
  />
<path
    d="M 156.07 103.97 C 156.13 98.93 159.24 94.12 163.06 91.04 C 163.47 91.22 164.29 91.58 164.69 91.76 C 164.12 96.19 161.40 100.13 158.52 103.43 C 157.91 103.56 156.68 103.83 156.07 103.97 Z"
    fill="#e4f8fb"
    opacity="1.00"
    stroke="#e4f8fb"
    stroke-width="0.25"
  />
<path
    d="M 349.61 91.56 C 352.41 90.65 355.40 90.88 358.30 90.67 C 360.36 91.67 362.15 93.11 363.73 94.76 C 363.51 97.12 364.04 99.98 361.75 101.52 L 361.59 99.42 C 362.15 93.45 355.54 90.88 350.62 91.98 L 349.61 91.56 Z"
    fill="#b69a20"
    opacity="1.00"
    stroke="#b69a20"
    stroke-width="0.25"
  />
<path
    d="M 346.31 93.88 C 347.39 93.08 348.48 92.30 349.61 91.56 L 350.62 91.98 C 352.76 93.30 355.08 94.43 356.87 96.23 C 357.26 98.04 357.25 99.90 357.40 101.75 C 354.02 101.93 350.04 102.20 347.51 99.51 C 345.86 98.09 346.46 95.78 346.31 93.88 Z"
    fill="#f5e41f"
    opacity="1.00"
    stroke="#f5e41f"
    stroke-width="0.25"
  />
<path
    d="M 350.62 91.98 C 355.54 90.88 362.15 93.45 361.59 99.42 C 360.23 100.26 358.85 101.09 357.40 101.75 C 357.25 99.90 357.26 98.04 356.87 96.23 C 355.08 94.43 352.76 93.30 350.62 91.98 Z"
    fill="#fabc00"
    opacity="1.00"
    stroke="#fabc00"
    stroke-width="0.25"
  />
<path
    d="M 103.12 95.22 C 109.49 92.40 116.61 92.48 123.42 93.05 C 121.85 93.48 120.31 93.98 118.77 94.48 C 118.52 95.20 118.28 95.93 118.04 96.66 C 117.65 96.64 116.88 96.61 116.49 96.59 C 114.42 96.50 112.35 96.47 110.28 96.55 C 107.82 96.63 105.31 96.47 103.12 95.22 Z"
    fill="#2e9ea9"
    opacity="1.00"
    stroke="#2e9ea9"
    stroke-width="0.25"
  />
<path
    d="M 123.42 93.05 C 129.55 93.97 135.51 96.58 140.09 100.80 C 138.16 100.77 135.72 99.80 134.49 101.90 C 129.92 99.08 124.71 97.54 119.42 96.82 L 118.04 96.66 C 118.28 95.93 118.52 95.20 118.77 94.48 C 120.31 93.98 121.85 93.48 123.42 93.05 Z"
    fill="#30b2c3"
    opacity="1.00"
    stroke="#30b2c3"
    stroke-width="0.25"
  />
<path
    d="M 344.22 95.45 C 344.74 95.06 345.79 94.27 346.31 93.88 C 346.46 95.78 345.86 98.09 347.51 99.51 C 350.04 102.20 354.02 101.93 357.40 101.75 C 358.85 101.09 360.23 100.26 361.59 99.42 L 361.75 101.52 C 360.58 101.92 359.40 102.21 358.22 102.51 C 358.65 102.50 359.53 102.48 359.97 102.47 C 360.14 104.74 357.51 104.53 356.03 104.61 C 353.24 104.52 350.15 104.96 347.76 103.20 C 344.91 101.83 344.25 98.32 344.22 95.45 Z"
    fill="#92a079"
    opacity="1.00"
    stroke="#92a079"
    stroke-width="0.25"
  />
<path
    d="M 89.82 103.89 C 93.42 100.03 97.94 97.11 102.80 95.09 L 103.12 95.22 C 105.31 96.47 107.82 96.63 110.28 96.55 C 101.12 97.92 92.61 102.70 87.01 110.12 C 86.51 110.34 85.49 110.78 84.98 111.00 C 85.61 108.07 87.89 106.01 89.82 103.89 Z"
    fill="#74babd"
    opacity="1.00"
    stroke="#74babd"
    stroke-width="0.25"
  />
<path
    d="M 349.38 98.50 C 348.22 94.24 354.76 94.78 354.70 98.40 C 353.78 98.80 352.88 99.20 351.97 99.61 C 351.10 99.24 350.24 98.87 349.38 98.50 Z"
    fill="#f1f76e"
    opacity="1.00"
    stroke="#f1f76e"
    stroke-width="0.25"
  />
<path
    d="M 87.01 110.12 C 92.61 102.70 101.12 97.92 110.28 96.55 C 112.35 96.47 114.42 96.50 116.49 96.59 C 107.31 100.21 97.53 104.39 91.87 112.95 C 88.20 117.59 87.53 123.71 87.63 129.43 C 89.16 127.92 90.64 126.34 92.14 124.79 C 92.45 126.56 92.75 128.33 92.96 130.12 C 92.91 136.06 95.63 141.38 97.45 146.88 C 99.73 155.95 102.80 164.85 106.79 173.31 C 108.80 178.42 110.77 183.61 114.08 188.05 C 118.20 193.59 121.00 200.10 125.87 205.09 C 127.59 207.12 130.49 207.14 132.94 207.17 C 137.64 206.92 142.53 206.46 146.71 204.08 C 148.39 203.40 150.10 202.82 151.82 202.23 C 151.04 204.67 150.05 207.05 148.74 209.27 C 142.26 212.86 134.74 213.30 127.59 214.54 C 129.06 214.54 130.53 214.54 132.00 214.49 C 132.95 216.98 135.83 216.08 137.84 216.24 C 140.58 215.99 143.58 216.92 146.11 215.51 C 148.13 214.45 150.34 213.86 152.52 213.21 C 152.47 212.78 152.37 211.91 152.32 211.48 C 153.21 211.46 154.99 211.43 155.88 211.41 C 155.16 210.70 154.44 209.99 153.71 209.28 C 152.38 210.10 151.58 211.24 151.31 212.72 C 150.87 212.58 149.98 212.30 149.53 212.16 L 149.64 213.46 C 148.10 213.14 146.93 213.54 146.12 214.65 C 145.56 214.41 144.44 213.91 143.89 213.66 C 143.59 213.50 143.00 213.17 142.71 213.00 C 145.96 212.92 148.91 211.57 151.69 210.01 L 152.25 209.71 C 152.39 209.36 152.66 208.65 152.80 208.30 C 154.09 208.63 155.37 208.96 156.66 209.29 L 156.60 210.85 C 156.53 212.33 156.50 213.81 156.50 215.30 C 154.83 217.34 153.13 219.53 150.67 220.68 C 143.86 224.09 136.18 225.18 128.65 225.46 C 134.53 226.68 140.69 226.30 146.47 224.68 C 148.14 226.20 150.10 227.33 152.23 228.09 C 149.94 229.28 147.63 230.47 145.09 231.02 C 141.72 231.52 138.42 232.55 135.00 232.74 C 131.94 232.69 129.20 231.13 126.47 229.94 C 126.19 228.84 125.87 227.76 125.50 226.70 C 124.94 227.44 124.51 228.26 124.23 229.15 C 123.52 225.02 121.42 220.92 121.64 216.64 C 122.18 216.59 123.27 216.47 123.82 216.42 C 117.62 209.16 110.79 202.23 106.43 193.63 C 102.59 187.08 100.33 179.80 97.02 172.99 C 92.51 163.83 89.94 153.91 86.61 144.29 C 84.54 137.98 82.25 131.65 81.76 124.97 C 82.44 119.72 84.39 114.70 87.01 110.12 Z"
    fill="#f7fcfb"
    opacity="1.00"
    stroke="#f7fcfb"
    stroke-width="0.25"
  />
<path
    d="M 116.49 96.59 C 116.88 96.61 117.65 96.64 118.04 96.66 L 119.42 96.82 C 117.88 97.95 116.31 99.05 114.75 100.15 C 114.67 101.03 114.59 101.91 114.51 102.79 C 113.65 103.37 112.77 103.89 111.91 104.46 C 111.87 106.24 111.88 108.03 112.09 109.80 C 110.29 110.89 108.58 112.12 106.96 113.47 C 102.95 115.86 97.82 117.32 95.25 121.47 C 94.26 122.62 93.19 123.70 92.14 124.79 C 90.64 126.34 89.16 127.92 87.63 129.43 C 87.53 123.71 88.20 117.59 91.87 112.95 C 97.53 104.39 107.31 100.21 116.49 96.59 Z"
    fill="#a4efff"
    opacity="1.00"
    stroke="#a4efff"
    stroke-width="0.25"
  />
<path
    d="M 119.42 96.82 C 124.71 97.54 129.92 99.08 134.49 101.90 C 138.33 104.34 141.18 108.08 142.61 112.39 C 148.27 128.27 153.15 144.40 158.35 160.43 C 158.36 161.68 158.37 164.19 158.37 165.44 C 157.79 165.43 157.20 165.41 156.62 165.39 C 156.68 163.22 155.45 161.64 153.54 160.81 C 149.77 147.83 145.28 135.07 140.80 122.32 C 139.27 117.26 138.54 110.05 132.25 108.80 C 123.55 107.43 115.02 110.55 106.96 113.47 C 108.58 112.12 110.29 110.89 112.09 109.80 C 111.88 108.03 111.87 106.24 111.91 104.46 C 112.77 103.89 113.65 103.37 114.51 102.79 C 114.59 101.91 114.67 101.03 114.75 100.15 C 116.31 99.05 117.88 97.95 119.42 96.82 Z"
    fill="#93ebff"
    opacity="1.00"
    stroke="#93ebff"
    stroke-width="0.25"
  />
<path
    d="M 134.49 101.90 C 135.72 99.80 138.16 100.77 140.09 100.80 C 143.52 104.52 145.31 109.36 146.91 114.07 C 153.51 134.42 159.66 154.95 164.71 175.73 L 165.27 176.93 C 164.74 178.43 164.05 179.85 163.32 181.26 C 164.25 173.96 160.74 167.12 158.35 160.43 C 153.15 144.40 148.27 128.27 142.61 112.39 C 141.18 108.08 138.33 104.34 134.49 101.90 Z"
    fill="#17b6c1"
    opacity="1.00"
    stroke="#17b6c1"
    stroke-width="0.25"
  />
<path
    d="M 58.20 101.15 C 61.39 100.78 63.46 103.49 65.61 105.38 C 68.13 107.95 71.15 110.86 70.76 114.81 C 69.56 114.61 68.30 114.49 67.40 113.59 C 64.22 111.17 61.17 108.48 58.87 105.17 C 57.90 104.04 58.30 102.50 58.20 101.15 Z"
    fill="#f0fafc"
    opacity="1.00"
    stroke="#f0fafc"
    stroke-width="0.25"
  />
<path
    d="M 106.96 113.47 C 115.02 110.55 123.55 107.43 132.25 108.80 C 138.54 110.05 139.27 117.26 140.80 122.32 C 139.61 119.99 138.42 117.62 136.59 115.70 C 135.57 114.09 134.70 111.92 132.57 111.60 C 123.89 110.48 115.16 112.75 107.11 115.87 C 103.04 117.46 98.82 118.87 95.25 121.47 C 97.82 117.32 102.95 115.86 106.96 113.47 Z"
    fill="#35a7b8"
    opacity="1.00"
    stroke="#35a7b8"
    stroke-width="0.25"
  />
<path
    d="M 107.11 115.87 C 115.16 112.75 123.89 110.48 132.57 111.60 C 134.70 111.92 135.57 114.09 136.59 115.70 L 137.09 117.28 C 134.42 114.76 131.53 111.69 127.46 112.79 C 123.46 113.29 118.85 112.81 115.57 115.60 C 110.78 119.07 104.92 120.52 99.49 122.67 C 96.58 124.37 94.82 127.40 92.96 130.12 C 92.75 128.33 92.45 126.56 92.14 124.79 C 93.19 123.70 94.26 122.62 95.25 121.47 C 98.82 118.87 103.04 117.46 107.11 115.87 Z"
    fill="#f9fbe6"
    opacity="1.00"
    stroke="#f9fbe6"
    stroke-width="0.25"
  />
<path
    d="M 115.57 115.60 C 118.85 112.81 123.46 113.29 127.46 112.79 C 125.90 115.64 121.96 114.45 120.28 117.00 C 120.74 117.89 121.18 118.79 121.64 119.69 C 120.27 119.94 118.90 120.21 117.52 120.40 C 116.96 120.41 115.84 120.42 115.29 120.43 C 111.45 120.02 105.59 120.88 105.18 125.65 C 108.50 125.52 111.83 125.35 115.16 125.34 L 115.65 125.72 C 111.75 126.29 107.55 126.46 104.37 129.11 C 107.15 137.60 109.04 146.37 112.39 154.67 C 115.69 163.45 116.78 173.12 121.97 181.11 C 122.82 182.52 124.07 181.31 124.09 180.06 C 124.90 182.59 127.44 183.38 129.68 184.23 C 129.49 187.53 128.26 190.65 126.07 193.14 C 124.82 193.18 123.57 193.23 122.32 193.28 C 123.11 193.94 123.90 194.60 124.69 195.27 C 125.06 197.19 125.54 199.10 126.33 200.91 C 127.30 198.80 128.19 196.59 129.78 194.86 C 129.93 198.33 126.17 203.33 130.31 205.53 C 136.08 206.77 141.81 204.74 147.21 202.90 L 146.71 204.08 C 142.53 206.46 137.64 206.92 132.94 207.17 C 130.49 207.14 127.59 207.12 125.87 205.09 C 121.00 200.10 118.20 193.59 114.08 188.05 C 110.77 183.61 108.80 178.42 106.79 173.31 C 102.80 164.85 99.73 155.95 97.45 146.88 C 95.63 141.38 92.91 136.06 92.96 130.12 C 94.82 127.40 96.58 124.37 99.49 122.67 C 104.92 120.52 110.78 119.07 115.57 115.60 Z"
    fill="#fef8c4"
    opacity="1.00"
    stroke="#fef8c4"
    stroke-width="0.25"
  />
<path
    d="M 127.46 112.79 C 131.53 111.69 134.42 114.76 137.09 117.28 C 142.00 130.17 146.14 143.34 150.46 156.44 C 152.39 164.15 156.09 171.45 156.75 179.44 C 153.70 181.88 153.89 186.10 152.63 189.49 C 151.51 194.23 149.36 198.58 147.21 202.90 C 141.81 204.74 136.08 206.77 130.31 205.53 C 126.17 203.33 129.93 198.33 129.78 194.86 C 128.19 196.59 127.30 198.80 126.33 200.91 C 125.54 199.10 125.06 197.19 124.69 195.27 C 123.90 194.60 123.11 193.94 122.32 193.28 C 123.57 193.23 124.82 193.18 126.07 193.14 C 128.26 190.65 129.49 187.53 129.68 184.23 C 127.44 183.38 124.90 182.59 124.09 180.06 C 123.99 178.61 123.89 177.15 123.77 175.71 C 124.56 177.60 125.35 179.49 126.01 181.43 C 127.49 181.60 128.98 181.58 130.46 181.39 C 129.14 176.39 126.74 171.74 125.80 166.62 C 128.05 169.00 128.36 172.44 130.36 174.98 C 130.70 174.11 131.38 172.35 131.72 171.48 C 132.25 172.58 132.83 173.65 133.42 174.74 C 134.51 174.69 135.60 174.65 136.69 174.62 C 136.74 172.21 136.64 169.76 135.76 167.49 C 131.55 155.60 128.18 143.43 123.68 131.65 C 122.09 127.67 121.59 122.77 117.52 120.40 C 118.90 120.21 120.27 119.94 121.64 119.69 C 121.18 118.79 120.74 117.89 120.28 117.00 C 121.96 114.45 125.90 115.64 127.46 112.79 Z"
    fill="#fffaaf"
    opacity="1.00"
    stroke="#fffaaf"
    stroke-width="0.25"
  />
<path
    d="M 136.59 115.70 C 138.42 117.62 139.61 119.99 140.80 122.32 C 145.28 135.07 149.77 147.83 153.54 160.81 C 155.05 166.06 156.81 171.23 158.04 176.55 C 159.09 181.40 157.78 186.30 156.82 191.05 C 155.48 196.80 154.94 202.75 152.80 208.30 C 152.66 208.65 152.39 209.36 152.25 209.71 L 151.69 210.01 C 150.95 209.82 149.48 209.45 148.74 209.27 C 150.05 207.05 151.04 204.67 151.82 202.23 C 153.90 194.75 156.22 187.22 156.75 179.44 C 156.09 171.45 152.39 164.15 150.46 156.44 C 146.14 143.34 142.00 130.17 137.09 117.28 L 136.59 115.70 Z"
    fill="#388d8d"
    opacity="1.00"
    stroke="#388d8d"
    stroke-width="0.25"
  />
<path
    d="M 105.18 125.65 C 105.59 120.88 111.45 120.02 115.29 120.43 C 114.40 121.37 113.51 122.32 112.63 123.27 C 113.47 123.97 114.31 124.66 115.16 125.34 C 111.83 125.35 108.50 125.52 105.18 125.65 Z"
    fill="#f6d223"
    opacity="1.00"
    stroke="#f6d223"
    stroke-width="0.25"
  />
<path
    d="M 115.29 120.43 C 115.84 120.42 116.96 120.41 117.52 120.40 C 121.59 122.77 122.09 127.67 123.68 131.65 C 128.18 143.43 131.55 155.60 135.76 167.49 C 136.64 169.76 136.74 172.21 136.69 174.62 C 135.60 174.65 134.51 174.69 133.42 174.74 C 132.83 173.65 132.25 172.58 131.72 171.48 C 130.24 165.52 128.08 159.76 126.23 153.92 C 123.95 147.18 122.33 140.22 119.82 133.56 C 118.66 130.87 118.19 127.53 115.65 125.72 L 115.16 125.34 C 114.31 124.66 113.47 123.97 112.63 123.27 C 113.51 122.32 114.40 121.37 115.29 120.43 Z"
    fill="#f0b70a"
    opacity="1.00"
    stroke="#f0b70a"
    stroke-width="0.25"
  />
<path
    d="M 164.63 124.67 C 167.78 122.80 171.55 123.35 175.05 123.18 C 178.87 123.26 182.77 122.73 186.52 123.56 C 187.40 125.32 184.54 126.03 183.30 126.38 C 177.03 127.40 170.45 128.09 164.22 126.46 C 164.32 126.01 164.53 125.12 164.63 124.67 Z"
    fill="#ebfbfc"
    opacity="1.00"
    stroke="#ebfbfc"
    stroke-width="0.25"
  />
<path
    d="M 104.37 129.11 C 107.55 126.46 111.75 126.29 115.65 125.72 C 118.19 127.53 118.66 130.87 119.82 133.56 C 119.48 134.14 118.80 135.30 118.46 135.88 C 117.24 134.12 116.08 132.32 114.97 130.50 C 112.43 130.28 109.97 131.25 109.22 133.87 C 109.65 134.36 110.51 135.35 110.95 135.84 C 115.19 149.13 118.99 162.58 123.77 175.71 C 123.89 177.15 123.99 178.61 124.09 180.06 C 124.07 181.31 122.82 182.52 121.97 181.11 C 116.78 173.12 115.69 163.45 112.39 154.67 C 109.04 146.37 107.15 137.60 104.37 129.11 Z"
    fill="#fdfce7"
    opacity="1.00"
    stroke="#fdfce7"
    stroke-width="0.25"
  />
<path
    d="M 228.58 130.47 C 237.85 127.21 247.94 127.21 257.67 127.16 C 257.57 128.45 257.47 129.74 257.36 131.03 C 257.05 130.39 256.44 129.11 256.14 128.47 C 247.08 127.23 238.48 130.88 229.79 132.79 C 227.54 136.44 230.31 140.41 230.94 144.13 C 228.76 139.94 227.80 135.15 228.58 130.47 Z"
    fill="#cdf8fe"
    opacity="1.00"
    stroke="#cdf8fe"
    stroke-width="0.25"
  />
<path
    d="M 258.68 126.72 C 263.54 126.94 268.41 127.21 273.27 127.69 C 272.52 133.52 271.63 139.52 268.79 144.75 C 265.39 149.74 259.98 153.64 253.96 154.58 C 248.33 154.85 241.64 155.34 237.25 151.10 C 241.58 149.11 246.39 147.92 250.11 144.79 C 255.91 140.77 259.66 133.88 258.68 126.72 Z"
    fill="#00a0ca"
    opacity="1.00"
    stroke="#00a0ca"
    stroke-width="0.25"
  />
<path
    d="M 273.27 127.69 L 274.52 127.85 C 274.21 138.18 270.40 149.80 260.53 154.69 C 260.20 154.84 259.55 155.14 259.23 155.29 C 251.44 158.01 242.21 157.32 235.25 152.72 C 235.22 151.63 235.19 150.55 235.16 149.46 C 240.16 150.31 244.60 147.29 248.65 144.80 L 250.11 144.79 C 246.39 147.92 241.58 149.11 237.25 151.10 C 241.64 155.34 248.33 154.85 253.96 154.58 C 259.98 153.64 265.39 149.74 268.79 144.75 C 271.63 139.52 272.52 133.52 273.27 127.69 Z"
    fill="#124d68"
    opacity="1.00"
    stroke="#124d68"
    stroke-width="0.25"
  />
<path
    d="M 274.52 127.85 L 274.55 127.86 C 278.43 130.77 283.73 130.44 287.87 133.00 C 288.69 132.38 289.52 131.75 290.35 131.12 C 292.39 132.08 295.65 132.11 295.97 134.94 C 297.44 140.20 299.50 145.30 302.33 149.99 C 297.87 146.33 297.12 140.22 294.84 135.24 C 294.19 133.54 292.43 132.76 290.92 132.02 C 285.31 137.72 280.23 144.23 273.06 148.07 C 268.90 150.30 265.20 153.56 260.53 154.69 C 270.40 149.80 274.21 138.18 274.52 127.85 Z"
    fill="#6ae1ff"
    opacity="1.00"
    stroke="#6ae1ff"
    stroke-width="0.25"
  />
<path
    d="M 274.55 127.86 C 279.94 128.19 285.23 129.46 290.35 131.12 C 289.52 131.75 288.69 132.38 287.87 133.00 C 283.73 130.44 278.43 130.77 274.55 127.86 Z"
    fill="#84e6f7"
    opacity="1.00"
    stroke="#84e6f7"
    stroke-width="0.25"
  />
<path
    d="M 229.79 132.79 C 238.48 130.88 247.08 127.23 256.14 128.47 C 256.44 129.11 257.05 130.39 257.36 131.03 C 256.34 136.54 253.04 141.39 248.65 144.80 C 244.60 147.29 240.16 150.31 235.16 149.46 C 233.44 147.96 231.87 146.23 230.94 144.13 C 230.31 140.41 227.54 136.44 229.79 132.79 Z"
    fill="#53e7ff"
    opacity="1.00"
    stroke="#53e7ff"
    stroke-width="0.25"
  />
<path
    d="M 109.22 133.87 C 109.97 131.25 112.43 130.28 114.97 130.50 C 116.08 132.32 117.24 134.12 118.46 135.88 C 118.80 135.30 119.48 134.14 119.82 133.56 C 122.33 140.22 123.95 147.18 126.23 153.92 C 128.08 159.76 130.24 165.52 131.72 171.48 C 131.38 172.35 130.70 174.11 130.36 174.98 C 128.36 172.44 128.05 169.00 125.80 166.62 C 122.85 156.70 119.22 147.00 116.45 137.02 C 115.95 135.05 115.17 133.16 114.27 131.35 C 113.00 131.85 111.73 132.34 110.47 132.84 C 110.59 133.59 110.83 135.09 110.95 135.84 C 110.51 135.35 109.65 134.36 109.22 133.87 Z"
    fill="#fbfdcd"
    opacity="1.00"
    stroke="#fbfdcd"
    stroke-width="0.25"
  />
<path
    d="M 110.47 132.84 C 111.73 132.34 113.00 131.85 114.27 131.35 C 115.17 133.16 115.95 135.05 116.45 137.02 C 119.22 147.00 122.85 156.70 125.80 166.62 C 126.74 171.74 129.14 176.39 130.46 181.39 C 128.98 181.58 127.49 181.60 126.01 181.43 C 125.35 179.49 124.56 177.60 123.77 175.71 C 118.99 162.58 115.19 149.13 110.95 135.84 C 110.83 135.09 110.59 133.59 110.47 132.84 Z"
    fill="#efcb28"
    opacity="1.00"
    stroke="#efcb28"
    stroke-width="0.25"
  />
<path
    d="M 180.29 162.61 C 191.61 148.11 207.27 137.07 224.70 131.22 C 224.86 132.25 225.19 134.30 225.36 135.33 C 224.02 135.62 222.65 135.85 221.38 136.36 C 210.96 140.96 200.60 146.31 192.47 154.44 C 185.66 160.82 179.94 168.35 175.56 176.58 C 174.15 179.00 172.85 181.49 171.87 184.12 C 168.38 192.77 166.74 202.13 167.17 211.46 C 167.11 216.00 167.01 220.54 167.04 225.09 C 166.55 218.61 167.25 212.10 166.56 205.64 C 165.79 212.06 165.66 218.55 166.33 224.97 C 166.03 225.40 165.43 226.24 165.13 226.66 C 164.16 225.68 163.16 224.73 162.15 223.78 C 160.04 208.79 164.01 193.58 169.75 179.80 C 172.46 173.61 176.35 168.06 180.29 162.61 Z"
    fill="#e7fdfe"
    opacity="1.00"
    stroke="#e7fdfe"
    stroke-width="0.25"
  />
<path
    d="M 273.06 148.07 C 280.23 144.23 285.31 137.72 290.92 132.02 C 292.43 132.76 294.19 133.54 294.84 135.24 C 297.12 140.22 297.87 146.33 302.33 149.99 C 304.30 152.69 306.10 155.52 307.53 158.56 C 312.10 167.69 317.66 176.47 320.45 186.39 C 327.56 208.13 329.02 232.18 322.08 254.15 C 318.56 265.77 311.09 276.19 301.13 283.16 C 296.99 286.27 292.19 288.28 287.73 290.85 C 276.94 295.04 265.50 297.40 254.01 298.53 C 242.29 298.64 230.51 299.25 218.85 297.69 C 208.31 296.27 198.01 293.17 188.15 289.27 C 186.89 288.84 185.23 288.80 184.63 287.38 C 179.50 279.02 175.28 269.85 174.12 260.03 C 173.09 252.27 172.83 244.38 173.47 236.58 C 177.57 240.00 182.53 242.79 188.01 242.76 C 193.83 243.10 200.37 240.59 202.97 235.06 C 206.68 227.31 205.98 217.42 200.42 210.71 C 199.63 209.74 198.81 208.80 198.03 207.83 C 197.22 201.82 189.61 202.40 185.11 201.55 C 186.40 201.23 187.70 200.91 189.01 200.59 C 188.68 200.30 188.03 199.71 187.70 199.42 C 185.08 199.43 182.47 199.10 179.94 198.39 C 187.44 197.55 195.05 198.98 202.49 197.71 L 202.53 196.55 C 203.02 192.03 201.08 187.90 198.70 184.21 C 197.85 182.07 196.01 180.65 194.50 179.02 C 193.46 177.52 195.31 176.15 195.88 174.88 C 200.91 167.75 207.38 161.79 214.14 156.33 C 218.84 153.13 223.56 149.68 229.05 147.93 C 232.88 152.64 238.31 155.86 244.18 157.28 C 248.05 157.61 251.96 157.49 255.84 157.28 C 257.28 157.31 258.16 156.02 259.23 155.29 C 259.55 155.14 260.20 154.84 260.53 154.69 C 265.20 153.56 268.90 150.30 273.06 148.07 Z"
    fill="#00dfff"
    opacity="1.00"
    stroke="#00dfff"
    stroke-width="0.25"
  />
<path
    d="M 297.65 134.05 C 303.51 136.31 309.33 138.93 314.17 143.03 C 311.76 142.87 308.38 139.87 306.63 142.65 C 304.45 145.43 305.71 149.24 305.51 152.49 C 302.51 146.51 300.02 140.29 297.65 134.05 Z"
    fill="#009ecb"
    opacity="1.00"
    stroke="#009ecb"
    stroke-width="0.25"
  />
<path
    d="M 225.36 135.33 C 227.13 141.77 229.30 148.89 235.25 152.72 C 242.21 157.32 251.44 158.01 259.23 155.29 C 258.16 156.02 257.28 157.31 255.84 157.28 C 251.96 157.49 248.05 157.61 244.18 157.28 C 238.31 155.86 232.88 152.64 229.05 147.93 C 223.56 149.68 218.84 153.13 214.14 156.33 C 207.38 161.79 200.91 167.75 195.88 174.88 C 195.31 176.15 193.46 177.52 194.50 179.02 C 196.01 180.65 197.85 182.07 198.70 184.21 C 196.04 179.59 189.94 176.92 185.23 180.30 C 183.21 177.87 181.73 175.07 180.80 172.07 C 179.23 173.74 177.96 176.05 175.56 176.58 C 179.94 168.35 185.66 160.82 192.47 154.44 C 200.60 146.31 210.96 140.96 221.38 136.36 C 222.65 135.85 224.02 135.62 225.36 135.33 Z"
    fill="#72e6ff"
    opacity="1.00"
    stroke="#72e6ff"
    stroke-width="0.25"
  />
<path
    d="M 43.08 143.63 C 44.15 140.89 47.45 140.99 49.90 140.64 C 55.10 140.46 60.32 140.32 65.50 140.67 C 65.86 140.96 66.57 141.54 66.93 141.83 C 66.04 144.21 63.15 144.46 61.01 144.87 C 55.06 145.59 48.78 145.70 43.08 143.63 Z"
    fill="#edfcfd"
    opacity="1.00"
    stroke="#edfcfd"
    stroke-width="0.25"
  />
<path
    d="M 319.40 139.89 C 336.11 151.68 346.47 170.57 351.31 190.11 C 356.59 213.05 355.73 237.58 347.78 259.81 C 359.59 264.55 370.66 271.28 380.07 279.88 C 388.79 287.54 395.40 298.25 396.13 310.03 C 396.52 315.86 394.34 321.47 391.40 326.39 C 389.33 323.02 390.95 318.99 389.75 315.40 C 389.56 311.24 390.09 306.94 388.62 302.94 C 386.81 296.16 382.40 290.40 377.48 285.53 C 368.29 276.76 357.40 269.62 345.42 265.31 C 342.55 270.64 338.98 275.61 334.48 279.70 C 333.95 276.89 336.57 275.05 337.22 272.54 C 337.17 270.91 336.73 269.32 336.45 267.74 C 343.32 257.42 345.68 244.94 347.26 232.85 C 349.00 213.23 347.41 192.86 339.34 174.67 C 334.29 163.38 326.62 153.28 317.17 145.31 C 317.59 145.01 318.44 144.43 318.87 144.13 C 317.96 143.22 317.06 142.32 316.16 141.41 C 317.23 140.90 318.32 140.40 319.40 139.89 Z"
    fill="#05485f"
    opacity="1.00"
    stroke="#05485f"
    stroke-width="0.25"
  />
<path
    d="M 306.63 142.65 C 308.38 139.87 311.76 142.87 314.17 143.03 C 315.18 143.76 316.18 144.52 317.17 145.31 C 326.62 153.28 334.29 163.38 339.34 174.67 C 347.41 192.86 349.00 213.23 347.26 232.85 C 345.68 244.94 343.32 257.42 336.45 267.74 C 330.14 276.67 321.03 283.39 311.40 288.37 C 305.78 286.96 301.87 292.43 296.39 291.90 C 295.99 291.10 295.66 290.28 295.26 289.50 C 292.86 290.44 290.28 290.69 287.73 290.85 C 292.19 288.28 296.99 286.27 301.13 283.16 C 311.09 276.19 318.56 265.77 322.08 254.15 C 329.02 232.18 327.56 208.13 320.45 186.39 C 317.66 176.47 312.10 167.69 307.53 158.56 C 307.23 156.42 306.39 154.43 305.51 152.49 C 305.71 149.24 304.45 145.43 306.63 142.65 Z"
    fill="#00b9e2"
    opacity="1.00"
    stroke="#00b9e2"
    stroke-width="0.25"
  />
<path
    d="M 50.31 167.74 C 49.56 163.90 51.72 156.92 56.80 159.20 C 56.65 162.43 54.88 165.29 52.66 167.53 C 52.07 167.58 50.90 167.69 50.31 167.74 Z"
    fill="#eaf9f6"
    opacity="1.00"
    stroke="#eaf9f6"
    stroke-width="0.25"
  />
<path
    d="M 153.54 160.81 C 155.45 161.64 156.68 163.22 156.62 165.39 C 157.20 165.41 157.79 165.43 158.37 165.44 C 158.37 164.19 158.36 161.68 158.35 160.43 C 160.74 167.12 164.25 173.96 163.32 181.26 C 160.24 188.55 158.73 196.52 157.82 204.33 C 157.60 204.44 157.16 204.66 156.94 204.77 C 157.72 206.83 157.61 208.86 156.60 210.85 L 156.66 209.29 C 155.37 208.96 154.09 208.63 152.80 208.30 C 154.94 202.75 155.48 196.80 156.82 191.05 C 157.78 186.30 159.09 181.40 158.04 176.55 C 156.81 171.23 155.05 166.06 153.54 160.81 Z"
    fill="#6ff1ff"
    opacity="1.00"
    stroke="#6ff1ff"
    stroke-width="0.25"
  />
<path
    d="M 174.56 166.85 C 176.17 165.06 177.69 162.92 180.29 162.61 C 176.35 168.06 172.46 173.61 169.75 179.80 C 169.17 179.70 168.00 179.51 167.42 179.41 C 162.48 189.25 160.52 200.15 158.57 210.88 L 157.44 211.27 C 157.67 208.96 157.59 206.61 157.82 204.33 C 158.73 196.52 160.24 188.55 163.32 181.26 C 164.05 179.85 164.74 178.43 165.27 176.93 C 166.94 172.34 169.82 168.29 172.47 164.23 C 173.17 165.10 173.88 165.97 174.56 166.85 Z"
    fill="#0e5a64"
    opacity="1.00"
    stroke="#0e5a64"
    stroke-width="0.25"
  />
<path
    d="M 175.56 176.58 C 177.96 176.05 179.23 173.74 180.80 172.07 C 181.73 175.07 183.21 177.87 185.23 180.30 C 184.57 180.89 183.94 181.51 183.33 182.14 C 181.36 181.21 179.36 179.83 177.07 180.13 C 175.17 181.22 173.52 182.69 171.87 184.12 C 172.85 181.49 174.15 179.00 175.56 176.58 Z"
    fill="#4bdfff"
    opacity="1.00"
    stroke="#4bdfff"
    stroke-width="0.25"
  />
<path
    d="M 167.42 179.41 C 168.00 179.51 169.17 179.70 169.75 179.80 C 164.01 193.58 160.04 208.79 162.15 223.78 C 162.72 227.05 163.74 230.25 164.04 233.57 C 162.89 234.77 162.23 236.32 162.54 238.01 C 162.78 242.66 163.36 247.31 163.12 251.98 L 162.59 252.53 C 162.26 244.76 163.59 236.66 160.82 229.19 C 160.44 229.25 159.67 229.38 159.28 229.44 C 158.24 229.56 157.20 229.69 156.15 229.81 C 157.74 227.66 159.11 225.24 158.38 222.43 C 156.98 224.09 156.12 226.15 154.64 227.73 C 152.18 229.74 149.23 231.04 146.37 232.38 L 145.09 231.02 C 147.63 230.47 149.94 229.28 152.23 228.09 C 154.45 226.66 155.95 224.45 157.52 222.38 C 157.55 220.33 157.57 218.28 157.59 216.24 C 155.61 220.84 151.13 223.46 146.47 224.68 C 140.69 226.30 134.53 226.68 128.65 225.46 C 136.18 225.18 143.86 224.09 150.67 220.68 C 153.13 219.53 154.83 217.34 156.50 215.30 C 156.50 213.81 156.53 212.33 156.60 210.85 C 157.61 208.86 157.72 206.83 156.94 204.77 C 157.16 204.66 157.60 204.44 157.82 204.33 C 157.59 206.61 157.67 208.96 157.44 211.27 L 158.57 210.88 C 160.52 200.15 162.48 189.25 167.42 179.41 Z"
    fill="#0a3c4b"
    opacity="1.00"
    stroke="#0a3c4b"
    stroke-width="0.25"
  />
<path
    d="M 185.23 180.30 C 189.94 176.92 196.04 179.59 198.70 184.21 C 201.08 187.90 203.02 192.03 202.53 196.55 C 196.55 196.67 190.54 196.66 184.59 196.07 C 182.75 195.95 181.56 194.53 180.80 193.00 C 180.27 189.20 180.97 185.24 183.33 182.14 C 183.94 181.51 184.57 180.89 185.23 180.30 Z"
    fill="#004865"
    opacity="1.00"
    stroke="#004865"
    stroke-width="0.25"
  />
<path
    d="M 152.63 189.49 C 153.89 186.10 153.70 181.88 156.75 179.44 C 156.22 187.22 153.90 194.75 151.82 202.23 C 150.10 202.82 148.39 203.40 146.71 204.08 L 147.21 202.90 C 149.36 198.58 151.51 194.23 152.63 189.49 Z"
    fill="#f9fcda"
    opacity="1.00"
    stroke="#f9fcda"
    stroke-width="0.25"
  />
<path
    d="M 171.87 184.12 C 173.52 182.69 175.17 181.22 177.07 180.13 C 179.36 179.83 181.36 181.21 183.33 182.14 C 180.97 185.24 180.27 189.20 180.80 193.00 C 179.65 190.93 178.80 188.71 177.97 186.49 C 176.05 187.17 173.15 186.98 172.51 189.41 C 169.98 195.87 169.05 202.81 168.53 209.68 C 168.19 210.13 167.51 211.01 167.17 211.46 C 166.74 202.13 168.38 192.77 171.87 184.12 Z"
    fill="#2cdcff"
    opacity="1.00"
    stroke="#2cdcff"
    stroke-width="0.25"
  />
<path
    d="M 82.19 188.16 C 83.88 185.95 85.55 182.58 88.86 183.17 C 88.60 187.72 85.76 192.04 81.98 194.51 C 78.68 194.08 81.07 189.81 82.19 188.16 Z"
    fill="#effcf9"
    opacity="1.00"
    stroke="#effcf9"
    stroke-width="0.25"
  />
<path
    d="M 188.33 186.52 C 187.90 184.24 190.05 183.30 191.98 184.16 C 193.49 186.84 190.22 187.16 188.33 186.52 Z"
    fill="#a4efff"
    opacity="1.00"
    stroke="#a4efff"
    stroke-width="0.25"
  />
<path
    d="M 172.51 189.41 C 173.15 186.98 176.05 187.17 177.97 186.49 C 178.80 188.71 179.65 190.93 180.80 193.00 C 181.56 194.53 182.75 195.95 184.59 196.07 C 190.54 196.66 196.55 196.67 202.53 196.55 L 202.49 197.71 C 195.05 198.98 187.44 197.55 179.94 198.39 C 182.47 199.10 185.08 199.43 187.70 199.42 C 188.03 199.71 188.68 200.30 189.01 200.59 C 187.70 200.91 186.40 201.23 185.11 201.55 C 189.61 202.40 197.22 201.82 198.03 207.83 C 195.58 206.30 193.15 204.21 190.09 204.27 C 185.80 203.72 181.95 206.03 178.61 208.41 C 172.30 212.62 169.42 220.23 169.76 227.62 C 168.86 226.77 167.95 225.92 167.04 225.09 C 167.01 220.54 167.11 216.00 167.17 211.46 C 167.51 211.01 168.19 210.13 168.53 209.68 C 169.05 202.81 169.98 195.87 172.51 189.41 Z"
    fill="#11dafd"
    opacity="1.00"
    stroke="#11dafd"
    stroke-width="0.25"
  />
<path
    d="M 277.07 202.68 C 284.04 198.92 293.28 199.08 299.61 204.12 L 299.57 204.27 C 299.48 204.67 299.30 205.46 299.20 205.86 C 294.27 204.00 288.99 201.13 283.70 203.59 C 283.54 204.41 283.23 206.03 283.08 206.84 C 282.53 207.72 281.98 208.58 281.47 209.47 C 280.71 206.80 279.18 204.47 277.07 202.68 Z"
    fill="#124d68"
    opacity="1.00"
    stroke="#124d68"
    stroke-width="0.25"
  />
<path
    d="M 283.70 203.59 C 288.99 201.13 294.27 204.00 299.20 205.86 C 300.94 207.29 302.50 208.93 303.85 210.73 C 301.60 212.71 300.95 215.59 300.30 218.38 C 299.86 218.40 298.97 218.43 298.53 218.45 C 299.32 215.28 299.71 211.65 298.42 208.59 C 294.46 204.62 287.72 203.18 283.08 206.84 C 283.23 206.03 283.54 204.41 283.70 203.59 Z"
    fill="#12404b"
    opacity="1.00"
    stroke="#12404b"
    stroke-width="0.25"
  />
<path
    d="M 269.07 231.93 C 263.32 222.08 267.41 208.43 277.07 202.68 C 279.18 204.47 280.71 206.80 281.47 209.47 C 278.94 214.29 282.89 220.08 288.06 220.42 C 291.15 221.00 293.64 218.77 295.56 216.67 C 296.23 217.27 296.91 217.86 297.60 218.45 C 297.83 218.45 298.30 218.45 298.53 218.45 C 298.97 218.43 299.86 218.40 300.30 218.38 C 300.95 215.59 301.60 212.71 303.85 210.73 C 302.50 208.93 300.94 207.29 299.20 205.86 C 299.30 205.46 299.48 204.67 299.57 204.27 C 310.46 211.00 312.02 228.01 302.79 236.77 C 293.42 246.31 275.31 243.82 269.07 231.93 Z"
    fill="#004d68"
    opacity="1.00"
    stroke="#004d68"
    stroke-width="0.25"
  />
<path
    d="M 178.61 208.41 C 181.95 206.03 185.80 203.72 190.09 204.27 C 193.15 204.21 195.58 206.30 198.03 207.83 C 198.81 208.80 199.63 209.74 200.42 210.71 C 200.80 214.21 200.89 217.98 198.23 220.68 C 198.65 216.69 198.93 211.42 194.58 209.46 C 188.39 205.35 177.63 210.51 179.71 218.56 C 179.29 218.55 178.47 218.51 178.05 218.50 C 175.40 215.32 177.57 211.75 178.61 208.41 Z"
    fill="#0c2e43"
    opacity="1.00"
    stroke="#0c2e43"
    stroke-width="0.25"
  />
<path
    d="M 283.08 206.84 C 287.72 203.18 294.46 204.62 298.42 208.59 C 299.71 211.65 299.32 215.28 298.53 218.45 C 298.30 218.45 297.83 218.45 297.60 218.45 C 296.91 217.86 296.23 217.27 295.56 216.67 C 293.64 218.77 291.15 221.00 288.06 220.42 C 282.89 220.08 278.94 214.29 281.47 209.47 C 281.98 208.58 282.53 207.72 283.08 206.84 Z"
    fill="#fbfcfe"
    opacity="1.00"
    stroke="#fbfcfe"
    stroke-width="0.25"
  />
<path
    d="M 166.33 224.97 C 165.66 218.55 165.79 212.06 166.56 205.64 C 167.25 212.10 166.55 218.61 167.04 225.09 C 167.95 225.92 168.86 226.77 169.76 227.62 C 170.03 229.06 170.35 230.50 170.74 231.92 C 170.46 231.50 169.92 230.67 169.64 230.26 C 169.13 230.34 168.11 230.50 167.60 230.59 C 166.86 229.22 166.05 227.90 165.13 226.66 C 165.43 226.24 166.03 225.40 166.33 224.97 Z"
    fill="#6ff1ff"
    opacity="1.00"
    stroke="#6ff1ff"
    stroke-width="0.25"
  />
<path
    d="M 179.71 218.56 C 177.63 210.51 188.39 205.35 194.58 209.46 C 198.93 211.42 198.65 216.69 198.23 220.68 C 198.08 220.97 197.80 221.57 197.66 221.86 C 196.81 221.00 195.97 220.14 195.13 219.29 C 193.64 220.65 192.58 222.48 190.94 223.66 C 186.49 224.83 181.58 222.86 179.71 218.56 Z"
    fill="#f9fcfd"
    opacity="1.00"
    stroke="#f9fcfd"
    stroke-width="0.25"
  />
<path
    d="M 127.59 214.54 C 134.74 213.30 142.26 212.86 148.74 209.27 C 149.48 209.45 150.95 209.82 151.69 210.01 C 148.91 211.57 145.96 212.92 142.71 213.00 C 139.14 213.50 135.59 214.16 132.00 214.49 C 130.53 214.54 129.06 214.54 127.59 214.54 Z"
    fill="#0b1e2a"
    opacity="1.00"
    stroke="#0b1e2a"
    stroke-width="0.25"
  />
<path
    d="M 169.76 227.62 C 169.42 220.23 172.30 212.62 178.61 208.41 C 177.57 211.75 175.40 215.32 178.05 218.50 C 178.47 218.51 179.29 218.55 179.71 218.56 C 181.58 222.86 186.49 224.83 190.94 223.66 C 192.58 222.48 193.64 220.65 195.13 219.29 C 195.97 220.14 196.81 221.00 197.66 221.86 C 197.80 221.57 198.08 220.97 198.23 220.68 C 200.89 217.98 200.80 214.21 200.42 210.71 C 205.98 217.42 206.68 227.31 202.97 235.06 C 200.37 240.59 193.83 243.10 188.01 242.76 C 182.53 242.79 177.57 240.00 173.47 236.58 C 172.50 235.06 171.63 233.48 170.74 231.92 C 170.35 230.50 170.03 229.06 169.76 227.62 Z"
    fill="#004c67"
    opacity="1.00"
    stroke="#004c67"
    stroke-width="0.25"
  />
<path
    d="M 153.71 209.28 C 154.44 209.99 155.16 210.70 155.88 211.41 C 154.99 211.43 153.21 211.46 152.32 211.48 C 152.37 211.91 152.47 212.78 152.52 213.21 C 150.34 213.86 148.13 214.45 146.11 215.51 C 145.55 215.05 144.44 214.12 143.89 213.66 C 144.44 213.91 145.56 214.41 146.12 214.65 C 146.93 213.54 148.10 213.14 149.64 213.46 L 149.53 212.16 C 149.98 212.30 150.87 212.58 151.31 212.72 C 151.58 211.24 152.38 210.10 153.71 209.28 Z"
    fill="#0b1e2a"
    opacity="1.00"
    stroke="#0b1e2a"
    stroke-width="0.25"
  />
<path
    d="M 132.00 214.49 C 135.59 214.16 139.14 213.50 142.71 213.00 C 143.00 213.17 143.59 213.50 143.89 213.66 C 144.44 214.12 145.55 215.05 146.11 215.51 C 143.58 216.92 140.58 215.99 137.84 216.24 C 135.83 216.08 132.95 216.98 132.00 214.49 Z"
    fill="#9faab3"
    opacity="1.00"
    stroke="#9faab3"
    stroke-width="0.25"
  />
<path
    d="M 153.52 213.10 C 153.83 213.11 154.44 213.11 154.75 213.11 C 154.71 213.71 154.63 214.92 154.58 215.53 C 152.87 216.94 151.15 218.52 148.86 218.82 C 147.63 219.50 146.19 219.55 144.86 219.87 C 138.39 220.98 130.72 222.08 124.89 218.27 C 129.96 220.89 135.80 219.57 141.22 219.28 C 143.35 218.23 146.01 218.38 148.22 217.29 C 149.07 216.14 151.17 217.11 151.61 215.58 L 152.47 215.45 L 152.56 214.44 L 153.66 214.50 L 153.52 213.10 Z"
    fill="#0b1e2a"
    opacity="1.00"
    stroke="#0b1e2a"
    stroke-width="0.25"
  />
<path
    d="M 146.47 224.68 C 151.13 223.46 155.61 220.84 157.59 216.24 C 157.57 218.28 157.55 220.33 157.52 222.38 C 155.95 224.45 154.45 226.66 152.23 228.09 C 150.10 227.33 148.14 226.20 146.47 224.68 Z"
    fill="#e1e2e6"
    opacity="1.00"
    stroke="#e1e2e6"
    stroke-width="0.25"
  />
<path
    d="M 154.64 227.73 C 156.12 226.15 156.98 224.09 158.38 222.43 C 159.11 225.24 157.74 227.66 156.15 229.81 C 150.68 235.83 141.71 237.01 134.01 236.01 C 130.79 235.34 126.44 233.97 126.47 229.94 C 129.20 231.13 131.94 232.69 135.00 232.74 C 138.42 232.55 141.72 231.52 145.09 231.02 L 146.37 232.38 C 149.23 231.04 152.18 229.74 154.64 227.73 Z"
    fill="#90adc1"
    opacity="1.00"
    stroke="#90adc1"
    stroke-width="0.25"
  />
<path
    d="M 162.15 223.78 C 163.16 224.73 164.16 225.68 165.13 226.66 C 166.05 227.90 166.86 229.22 167.60 230.59 C 169.41 242.85 167.45 255.67 171.33 267.69 C 173.38 276.25 178.16 284.36 185.69 289.17 C 186.71 292.95 190.87 293.88 193.57 296.12 C 192.05 296.66 190.44 296.34 188.92 296.03 C 185.34 294.89 181.36 294.45 178.24 296.95 C 172.58 293.47 167.20 289.38 163.11 284.09 C 164.00 283.27 164.90 282.45 165.80 281.64 C 167.08 282.98 168.81 283.56 170.60 283.87 C 170.82 284.08 171.27 284.50 171.49 284.70 C 171.50 284.56 171.50 284.26 171.50 284.11 C 172.34 280.78 170.13 277.99 169.01 275.06 C 166.55 269.00 165.54 262.46 164.68 256.00 C 163.63 248.56 164.54 241.04 164.04 233.57 C 163.74 230.25 162.72 227.05 162.15 223.78 Z"
    fill="#044762"
    opacity="1.00"
    stroke="#044762"
    stroke-width="0.25"
  />
<path
    d="M 124.23 229.15 C 124.51 228.26 124.94 227.44 125.50 226.70 C 125.87 227.76 126.19 228.84 126.47 229.94 C 126.44 233.97 130.79 235.34 134.01 236.01 C 141.71 237.01 150.68 235.83 156.15 229.81 C 157.20 229.69 158.24 229.56 159.28 229.44 C 155.91 233.33 152.60 237.96 147.19 238.94 C 146.80 239.08 146.04 239.37 145.66 239.51 C 144.05 238.09 142.24 238.56 140.68 239.77 C 136.74 239.41 132.09 237.83 128.73 240.71 C 124.96 243.22 122.82 247.77 123.52 252.29 C 123.13 251.90 122.37 251.12 121.98 250.73 C 121.45 246.13 124.83 242.79 126.43 238.84 C 126.73 238.63 127.33 238.21 127.63 238.01 C 125.61 236.56 124.36 234.41 123.53 232.12 C 123.70 231.38 124.05 229.90 124.23 229.15 Z"
    fill="#0b1e2a"
    opacity="1.00"
    stroke="#0b1e2a"
    stroke-width="0.25"
  />
<path
    d="M 159.28 229.44 C 159.67 229.38 160.44 229.25 160.82 229.19 C 163.59 236.66 162.26 244.76 162.59 252.53 C 162.34 252.79 161.83 253.29 161.58 253.54 C 160.08 253.24 158.59 252.93 157.10 252.62 C 153.80 248.06 150.99 243.12 147.19 238.94 C 152.60 237.96 155.91 233.33 159.28 229.44 Z"
    fill="#eab200"
    opacity="1.00"
    stroke="#eab200"
    stroke-width="0.25"
  />
<path
    d="M 167.60 230.59 C 168.11 230.50 169.13 230.34 169.64 230.26 C 169.92 230.67 170.46 231.50 170.74 231.92 C 171.63 233.48 172.50 235.06 173.47 236.58 C 172.83 244.38 173.09 252.27 174.12 260.03 C 175.28 269.85 179.50 279.02 184.63 287.38 C 185.23 288.80 186.89 288.84 188.15 289.27 C 187.63 289.31 186.59 289.39 186.07 289.43 L 185.69 289.17 C 178.16 284.36 173.38 276.25 171.33 267.69 C 167.45 255.67 169.41 242.85 167.60 230.59 Z"
    fill="#e4fcfb"
    opacity="1.00"
    stroke="#e4fcfb"
    stroke-width="0.25"
  />
<path
    d="M 162.54 238.01 C 162.23 236.32 162.89 234.77 164.04 233.57 C 164.54 241.04 163.63 248.56 164.68 256.00 C 165.54 262.46 166.55 269.00 169.01 275.06 C 170.13 277.99 172.34 280.78 171.50 284.11 C 170.67 282.66 169.81 281.23 169.19 279.68 C 168.27 276.59 167.05 273.59 166.14 270.49 C 164.98 264.35 163.16 258.28 163.12 251.98 C 163.36 247.31 162.78 242.66 162.54 238.01 Z"
    fill="#0b1e2a"
    opacity="1.00"
    stroke="#0b1e2a"
    stroke-width="0.25"
  />
<path
    d="M 140.68 239.77 C 142.24 238.56 144.05 238.09 145.66 239.51 C 149.75 244.13 152.82 249.51 156.71 254.29 C 158.83 260.28 159.99 266.62 161.10 272.89 C 161.71 276.22 163.73 279.04 165.80 281.64 C 164.90 282.45 164.00 283.27 163.11 284.09 C 162.53 283.38 161.94 282.68 161.36 281.97 C 162.72 286.10 162.96 290.54 164.46 294.61 C 167.10 298.84 172.93 297.79 177.15 297.57 L 176.19 298.45 C 172.00 298.84 167.08 299.56 163.77 296.30 C 163.32 295.88 162.87 295.46 162.43 295.03 C 161.63 297.80 161.28 301.02 158.93 303.00 C 157.64 304.11 156.33 305.21 155.06 306.34 C 156.08 307.02 157.10 307.70 158.12 308.39 C 152.15 309.09 145.37 307.37 141.79 302.20 C 137.80 296.33 136.27 289.15 135.49 282.20 C 130.67 281.60 125.27 279.76 123.08 275.03 C 120.64 270.57 122.19 265.12 125.39 261.49 C 122.44 259.11 119.84 255.81 119.64 251.89 C 119.41 246.80 121.75 241.25 126.43 238.84 C 124.83 242.79 121.45 246.13 121.98 250.73 C 122.37 251.12 123.13 251.90 123.52 252.29 C 124.52 253.61 125.45 254.99 126.42 256.34 C 126.06 258.46 128.39 259.34 129.63 260.60 C 128.61 261.00 127.59 261.41 126.57 261.82 C 124.63 266.05 122.74 271.75 126.33 275.67 C 129.46 280.16 135.53 279.39 139.93 281.76 C 140.41 288.22 141.87 294.92 145.84 300.19 C 147.76 302.73 151.21 304.96 154.42 303.46 C 157.39 301.74 159.48 298.52 159.73 295.08 C 161.09 287.97 158.38 281.06 157.22 274.14 C 155.90 267.24 155.33 260.06 152.28 253.64 C 149.62 248.20 146.16 242.73 140.68 239.77 Z"
    fill="#07444d"
    opacity="1.00"
    stroke="#07444d"
    stroke-width="0.25"
  />
<path
    d="M 128.73 240.71 C 132.09 237.83 136.74 239.41 140.68 239.77 C 146.16 242.73 149.62 248.20 152.28 253.64 C 155.33 260.06 155.90 267.24 157.22 274.14 C 158.38 281.06 161.09 287.97 159.73 295.08 C 159.48 298.52 157.39 301.74 154.42 303.46 C 151.21 304.96 147.76 302.73 145.84 300.19 C 141.87 294.92 140.41 288.22 139.93 281.76 C 144.52 282.18 147.60 278.00 149.04 274.18 C 143.96 281.61 132.21 280.53 127.20 273.64 C 124.64 270.54 125.32 265.62 128.20 262.94 C 132.39 262.86 138.19 264.71 140.61 259.95 C 138.45 260.44 136.29 261.90 134.03 261.09 C 131.14 260.16 128.78 258.15 126.42 256.34 C 125.45 254.99 124.52 253.61 123.52 252.29 C 122.82 247.77 124.96 243.22 128.73 240.71 Z"
    fill="#7c7e81"
    opacity="1.00"
    stroke="#7c7e81"
    stroke-width="0.25"
  />
<path
    d="M 145.66 239.51 C 146.04 239.37 146.80 239.08 147.19 238.94 C 150.99 243.12 153.80 248.06 157.10 252.62 C 158.59 252.93 160.08 253.24 161.58 253.54 C 160.70 254.41 159.86 255.32 159.02 256.24 C 160.94 264.10 161.06 272.85 166.08 279.57 C 166.86 280.35 167.69 281.09 168.51 281.85 C 169.03 282.35 170.08 283.36 170.60 283.87 C 168.81 283.56 167.08 282.98 165.80 281.64 C 163.73 279.04 161.71 276.22 161.10 272.89 C 159.99 266.62 158.83 260.28 156.71 254.29 C 152.82 249.51 149.75 244.13 145.66 239.51 Z"
    fill="#3c4f1d"
    opacity="1.00"
    stroke="#3c4f1d"
    stroke-width="0.25"
  />
<path
    d="M 237.07 248.66 C 242.17 248.24 247.10 246.78 252.14 246.00 L 253.38 246.45 C 244.38 249.85 234.61 250.83 225.05 250.36 C 220.95 250.22 216.93 249.24 212.82 249.19 C 215.40 252.97 219.33 255.50 223.19 257.81 C 223.18 259.23 223.93 260.62 225.27 261.21 C 224.88 261.40 224.11 261.79 223.73 261.98 C 221.08 257.10 214.43 256.07 212.14 250.96 C 211.05 249.47 212.44 247.01 214.27 247.51 C 221.76 249.09 229.45 249.04 237.07 248.66 Z"
    fill="#34c5e4"
    opacity="1.00"
    stroke="#34c5e4"
    stroke-width="0.25"
  />
<path
    d="M 253.38 246.45 C 254.17 246.35 255.74 246.14 256.52 246.03 C 256.07 246.41 255.17 247.15 254.72 247.52 C 246.44 254.46 236.30 258.45 226.42 262.49 C 225.27 262.49 224.13 262.44 222.99 262.35 L 223.73 261.98 C 224.11 261.79 224.88 261.40 225.27 261.21 C 228.86 260.10 224.98 258.12 223.19 257.81 C 219.33 255.50 215.40 252.97 212.82 249.19 C 216.93 249.24 220.95 250.22 225.05 250.36 C 234.61 250.83 244.38 249.85 253.38 246.45 Z"
    fill="#253235"
    opacity="1.00"
    stroke="#253235"
    stroke-width="0.25"
  />
<path
    d="M 226.42 262.49 C 236.30 258.45 246.44 254.46 254.72 247.52 C 255.40 249.12 253.57 249.87 252.69 250.76 C 245.21 256.43 236.26 259.48 227.83 263.37 L 226.42 262.49 Z"
    fill="#4bdfff"
    opacity="1.00"
    stroke="#4bdfff"
    stroke-width="0.25"
  />
<path
    d="M 242.00 250.98 C 244.77 250.46 247.44 249.40 250.30 249.37 C 243.34 252.75 236.60 257.08 228.94 258.63 C 224.43 256.06 219.17 254.47 215.69 250.40 C 224.29 252.46 233.31 252.54 242.00 250.98 Z"
    fill="#b7d1d3"
    opacity="1.00"
    stroke="#b7d1d3"
    stroke-width="0.25"
  />
<path
    d="M 162.59 252.53 L 163.12 251.98 C 163.16 258.28 164.98 264.35 166.14 270.49 C 165.37 273.53 167.04 276.56 166.08 279.57 C 161.06 272.85 160.94 264.10 159.02 256.24 C 159.86 255.32 160.70 254.41 161.58 253.54 C 161.83 253.29 162.34 252.79 162.59 252.53 Z"
    fill="#d9990f"
    opacity="1.00"
    stroke="#d9990f"
    stroke-width="0.25"
  />
<path
    d="M 129.63 260.60 C 128.39 259.34 126.06 258.46 126.42 256.34 C 128.78 258.15 131.14 260.16 134.03 261.09 C 136.29 261.90 138.45 260.44 140.61 259.95 C 138.19 264.71 132.39 262.86 128.20 262.94 C 125.32 265.62 124.64 270.54 127.20 273.64 C 132.21 280.53 143.96 281.61 149.04 274.18 C 147.60 278.00 144.52 282.18 139.93 281.76 C 135.53 279.39 129.46 280.16 126.33 275.67 C 122.74 271.75 124.63 266.05 126.57 261.82 C 127.59 261.41 128.61 261.00 129.63 260.60 Z"
    fill="#0b1e2a"
    opacity="1.00"
    stroke="#0b1e2a"
    stroke-width="0.25"
  />
<path
    d="M 223.19 257.81 C 224.98 258.12 228.86 260.10 225.27 261.21 C 223.93 260.62 223.18 259.23 223.19 257.81 Z"
    fill="#8edbf3"
    opacity="1.00"
    stroke="#8edbf3"
    stroke-width="0.25"
  />
<path
    d="M 345.42 265.31 C 357.40 269.62 368.29 276.76 377.48 285.53 C 382.40 290.40 386.81 296.16 388.62 302.94 C 387.39 301.63 386.33 300.18 385.57 298.55 C 383.31 293.77 379.48 290.02 375.89 286.24 C 368.92 279.59 360.76 274.35 352.40 269.64 C 350.44 268.54 348.22 268.05 346.06 267.54 C 344.66 269.78 343.28 272.04 341.66 274.13 C 339.19 276.98 336.76 279.88 333.96 282.40 C 330.51 285.21 326.94 287.92 322.95 289.92 C 320.61 291.20 317.79 292.14 316.61 294.76 C 316.37 294.32 315.88 293.44 315.63 293.00 C 315.97 292.52 316.64 291.56 316.98 291.08 C 323.62 288.82 329.32 284.36 334.48 279.70 C 338.98 275.61 342.55 270.64 345.42 265.31 Z"
    fill="#9c9645"
    opacity="1.00"
    stroke="#9c9645"
    stroke-width="0.25"
  />
<path
    d="M 311.40 288.37 C 321.03 283.39 330.14 276.67 336.45 267.74 C 336.73 269.32 337.17 270.91 337.22 272.54 C 336.57 275.05 333.95 276.89 334.48 279.70 C 329.32 284.36 323.62 288.82 316.98 291.08 C 316.34 291.24 315.07 291.56 314.43 291.72 C 314.25 294.16 315.72 296.21 316.78 298.28 C 319.35 302.98 321.32 308.02 322.45 313.27 C 321.45 312.35 320.30 311.49 319.92 310.12 C 317.36 303.70 315.51 296.67 310.77 291.43 C 308.18 292.63 305.62 293.90 303.08 295.21 C 299.28 297.01 295.23 298.29 291.04 298.77 C 293.39 300.01 295.95 301.23 297.41 303.58 C 300.96 308.66 300.36 315.78 297.00 320.80 C 294.38 324.42 291.07 327.49 287.42 330.06 C 284.83 330.87 282.51 332.30 280.29 333.83 C 280.38 332.77 280.47 331.71 280.56 330.65 C 285.73 326.87 290.54 322.40 294.05 317.01 C 296.95 312.71 296.62 305.91 292.06 302.86 C 289.10 300.48 285.08 301.29 281.61 301.59 C 279.90 305.03 278.84 308.75 277.09 312.17 C 274.73 316.83 271.82 321.19 269.50 325.89 C 269.26 325.36 268.77 324.30 268.52 323.77 C 268.63 323.39 268.84 322.64 268.94 322.27 C 258.28 325.22 247.25 326.54 236.29 327.86 L 235.41 327.24 C 247.66 324.44 261.75 324.48 271.67 315.71 C 273.96 312.80 275.38 309.32 277.26 306.16 C 278.15 304.74 278.21 303.04 278.29 301.43 C 277.12 300.88 275.96 300.36 274.80 299.82 C 282.79 297.89 291.10 297.04 298.76 293.87 C 303.04 292.20 307.28 290.41 311.40 288.37 Z"
    fill="#054c69"
    opacity="1.00"
    stroke="#054c69"
    stroke-width="0.25"
  />
<path
    d="M 341.66 274.13 C 343.28 272.04 344.66 269.78 346.06 267.54 C 348.22 268.05 350.44 268.54 352.40 269.64 C 360.76 274.35 368.92 279.59 375.89 286.24 C 374.71 287.28 374.45 288.79 374.24 290.26 C 368.25 282.74 359.22 278.08 349.85 276.41 C 347.32 275.97 344.76 275.66 342.25 275.08 L 341.66 274.13 Z"
    fill="#c89614"
    opacity="1.00"
    stroke="#c89614"
    stroke-width="0.25"
  />
<path
    d="M 166.14 270.49 C 167.05 273.59 168.27 276.59 169.19 279.68 C 169.02 280.22 168.68 281.30 168.51 281.85 C 167.69 281.09 166.86 280.35 166.08 279.57 C 167.04 276.56 165.37 273.53 166.14 270.49 Z"
    fill="#c4ac43"
    opacity="1.00"
    stroke="#c4ac43"
    stroke-width="0.25"
  />
<path
    d="M 333.96 282.40 C 336.76 279.88 339.19 276.98 341.66 274.13 L 342.25 275.08 C 344.97 280.06 349.15 284.05 351.88 289.02 C 356.08 296.52 359.40 304.51 361.89 312.74 C 362.80 321.09 364.95 329.42 369.37 336.63 C 369.99 336.71 371.22 336.87 371.84 336.95 C 372.44 337.00 373.63 337.09 374.23 337.13 C 367.19 341.91 359.45 345.76 351.21 347.96 C 350.67 348.10 349.58 348.39 349.04 348.53 C 347.61 348.45 346.18 348.36 344.77 348.25 C 344.74 343.15 346.10 338.16 346.13 333.05 C 346.35 318.91 344.37 304.67 339.66 291.31 C 338.51 287.92 336.51 284.89 333.96 282.40 Z"
    fill="#dda915"
    opacity="1.00"
    stroke="#dda915"
    stroke-width="0.25"
  />
<path
    d="M 342.25 275.08 C 344.76 275.66 347.32 275.97 349.85 276.41 C 359.22 278.08 368.25 282.74 374.24 290.26 C 381.46 299.39 382.26 311.74 380.21 322.80 C 376.99 326.60 372.13 328.57 367.21 328.62 C 365.05 323.44 364.83 317.60 361.89 312.74 C 359.40 304.51 356.08 296.52 351.88 289.02 C 349.15 284.05 344.97 280.06 342.25 275.08 Z"
    fill="#fbcf00"
    opacity="1.00"
    stroke="#fbcf00"
    stroke-width="0.25"
  />
<path
    d="M 169.19 279.68 C 169.81 281.23 170.67 282.66 171.50 284.11 C 171.50 284.26 171.50 284.56 171.49 284.70 C 171.27 284.50 170.82 284.08 170.60 283.87 C 170.08 283.36 169.03 282.35 168.51 281.85 C 168.68 281.30 169.02 280.22 169.19 279.68 Z"
    fill="#fffaaf"
    opacity="1.00"
    stroke="#fffaaf"
    stroke-width="0.25"
  />
<path
    d="M 161.36 281.97 C 161.94 282.68 162.53 283.38 163.11 284.09 C 167.20 289.38 172.58 293.47 178.24 296.95 C 177.96 297.11 177.42 297.42 177.15 297.57 C 172.93 297.79 167.10 298.84 164.46 294.61 C 162.96 290.54 162.72 286.10 161.36 281.97 Z"
    fill="#bcf2ff"
    opacity="1.00"
    stroke="#bcf2ff"
    stroke-width="0.25"
  />
<path
    d="M 322.95 289.92 C 326.94 287.92 330.51 285.21 333.96 282.40 C 336.51 284.89 338.51 287.92 339.66 291.31 C 344.37 304.67 346.35 318.91 346.13 333.05 C 346.10 338.16 344.74 343.15 344.77 348.25 C 346.18 348.36 347.61 348.45 349.04 348.53 C 341.66 350.60 334.02 352.19 326.33 351.78 C 327.78 332.47 326.70 311.83 316.61 294.76 C 317.79 292.14 320.61 291.20 322.95 289.92 Z"
    fill="#b8851e"
    opacity="1.00"
    stroke="#b8851e"
    stroke-width="0.25"
  />
<path
    d="M 374.24 290.26 C 374.45 288.79 374.71 287.28 375.89 286.24 C 379.48 290.02 383.31 293.77 385.57 298.55 C 386.33 300.18 387.39 301.63 388.62 302.94 C 390.09 306.94 389.56 311.24 389.75 315.40 C 388.83 319.20 386.91 322.62 385.03 326.01 C 383.72 327.26 382.65 328.70 381.73 330.25 C 379.42 332.74 376.99 335.15 374.23 337.13 C 373.63 337.09 372.44 337.00 371.84 336.95 C 376.57 333.75 380.82 328.92 380.21 322.80 C 382.26 311.74 381.46 299.39 374.24 290.26 Z"
    fill="#daa70f"
    opacity="1.00"
    stroke="#daa70f"
    stroke-width="0.25"
  />
<path
    d="M 296.39 291.90 C 301.87 292.43 305.78 286.96 311.40 288.37 C 307.28 290.41 303.04 292.20 298.76 293.87 C 291.10 297.04 282.79 297.89 274.80 299.82 C 256.07 303.60 236.71 303.58 217.85 300.91 C 218.78 300.53 219.72 300.15 220.66 299.75 C 220.05 299.06 219.45 298.37 218.85 297.69 C 230.51 299.25 242.29 298.64 254.01 298.53 C 265.50 297.40 276.94 295.04 287.73 290.85 C 290.28 290.69 292.86 290.44 295.26 289.50 C 295.66 290.28 295.99 291.10 296.39 291.90 Z"
    fill="#0daad8"
    opacity="1.00"
    stroke="#0daad8"
    stroke-width="0.25"
  />
<path
    d="M 164.60 288.48 C 167.26 289.74 168.98 292.28 171.29 294.04 C 170.95 294.54 170.28 295.55 169.94 296.05 C 166.91 294.72 164.31 292.04 164.60 288.48 Z"
    fill="#9dd5e7"
    opacity="1.00"
    stroke="#9dd5e7"
    stroke-width="0.25"
  />
<path
    d="M 188.15 289.27 C 198.01 293.17 208.31 296.27 218.85 297.69 C 219.45 298.37 220.05 299.06 220.66 299.75 C 219.72 300.15 218.78 300.53 217.85 300.91 C 206.75 298.97 195.11 296.59 186.07 289.43 C 186.59 289.39 187.63 289.31 188.15 289.27 Z"
    fill="#0ca6c6"
    opacity="1.00"
    stroke="#0ca6c6"
    stroke-width="0.25"
  />
<path
    d="M 185.69 289.17 L 186.07 289.43 C 195.11 296.59 206.75 298.97 217.85 300.91 C 236.71 303.58 256.07 303.60 274.80 299.82 C 275.96 300.36 277.12 300.88 278.29 301.43 C 278.21 303.04 278.15 304.74 277.26 306.16 C 275.38 309.32 273.96 312.80 271.67 315.71 C 271.70 315.44 271.74 314.91 271.77 314.64 C 264.60 315.99 257.26 315.35 250.01 315.51 C 234.78 315.70 219.34 313.74 205.19 307.89 C 203.49 307.20 201.80 306.32 199.92 306.43 C 199.11 311.71 199.73 317.14 198.61 322.36 C 198.14 316.54 199.54 310.80 199.42 305.00 C 198.88 303.61 197.41 302.94 196.40 301.96 C 195.60 301.32 194.82 300.68 194.03 300.05 C 193.29 302.22 192.80 304.46 192.47 306.74 C 191.05 306.95 189.63 307.16 188.22 307.38 C 188.51 307.74 189.10 308.46 189.39 308.83 C 184.99 309.98 180.44 310.67 175.88 310.47 C 176.00 310.69 176.23 311.14 176.35 311.36 C 177.81 315.05 181.70 316.60 185.24 317.56 C 187.40 318.59 190.68 320.12 190.09 322.99 C 188.35 325.61 184.84 325.42 182.12 324.96 C 177.20 324.72 173.41 321.05 170.42 317.51 C 168.53 320.66 167.19 324.81 163.16 325.71 C 162.34 320.82 163.65 316.02 164.70 311.29 C 163.04 310.91 163.13 313.04 162.53 314.06 C 161.39 312.07 160.45 309.79 158.38 308.57 L 158.12 308.39 C 157.10 307.70 156.08 307.02 155.06 306.34 C 156.33 305.21 157.64 304.11 158.93 303.00 C 158.73 304.01 158.54 305.03 158.34 306.05 C 159.22 306.62 160.07 307.43 161.20 307.44 C 166.22 307.73 171.30 308.23 176.28 307.25 C 181.46 306.67 186.62 305.59 191.32 303.26 C 191.75 301.81 192.18 300.37 192.61 298.92 C 191.39 297.94 190.18 296.95 188.92 296.03 C 190.44 296.34 192.05 296.66 193.57 296.12 C 190.87 293.88 186.71 292.95 185.69 289.17 Z"
    fill="#005875"
    opacity="1.00"
    stroke="#005875"
    stroke-width="0.25"
  />
<path
    d="M 303.08 295.21 C 305.62 293.90 308.18 292.63 310.77 291.43 C 315.51 296.67 317.36 303.70 319.92 310.12 C 320.30 311.49 321.45 312.35 322.45 313.27 C 325.67 324.06 326.05 335.45 325.08 346.60 C 324.54 348.84 324.00 351.08 323.51 353.34 C 321.83 354.29 319.50 354.71 318.69 356.68 C 314.21 366.90 308.61 376.64 302.02 385.64 C 294.72 394.45 286.37 402.51 276.59 408.51 C 270.40 412.04 263.89 415.05 257.12 417.27 C 253.54 418.60 249.86 416.94 246.66 415.39 C 242.49 413.20 238.12 411.25 234.64 408.00 L 235.36 406.37 C 240.47 404.91 245.52 402.99 249.83 399.82 C 257.75 393.43 264.83 386.04 270.92 377.90 C 275.09 372.67 278.23 366.73 281.91 361.17 C 282.37 360.08 282.84 358.99 283.30 357.91 C 285.30 355.99 286.74 353.60 288.02 351.16 C 293.89 342.42 296.66 332.16 299.51 322.15 C 302.68 313.45 303.06 304.12 304.87 295.11 C 304.42 295.14 303.53 295.19 303.08 295.21 Z"
    fill="#005d77"
    opacity="1.00"
    stroke="#005d77"
    stroke-width="0.25"
  />
<path
    d="M 314.43 291.72 C 315.07 291.56 316.34 291.24 316.98 291.08 C 316.64 291.56 315.97 292.52 315.63 293.00 C 315.88 293.44 316.37 294.32 316.61 294.76 C 326.70 311.83 327.78 332.47 326.33 351.78 C 334.02 352.19 341.66 350.60 349.04 348.53 C 349.58 348.39 350.67 348.10 351.21 347.96 C 350.84 348.45 350.09 349.44 349.72 349.94 C 341.63 351.22 333.52 354.10 325.25 352.84 C 325.17 350.76 325.08 348.68 325.08 346.60 C 326.05 335.45 325.67 324.06 322.45 313.27 C 321.32 308.02 319.35 302.98 316.78 298.28 C 315.72 296.21 314.25 294.16 314.43 291.72 Z"
    fill="#325443"
    opacity="1.00"
    stroke="#325443"
    stroke-width="0.25"
  />
<path
    d="M 162.43 295.03 C 162.87 295.46 163.32 295.88 163.77 296.30 C 162.61 299.29 164.10 302.66 166.05 304.96 C 169.32 306.11 172.97 306.05 176.28 307.25 C 171.30 308.23 166.22 307.73 161.20 307.44 C 160.07 307.43 159.22 306.62 158.34 306.05 C 158.54 305.03 158.73 304.01 158.93 303.00 C 161.28 301.02 161.63 297.80 162.43 295.03 Z"
    fill="#007797"
    opacity="1.00"
    stroke="#007797"
    stroke-width="0.25"
  />
<path
    d="M 178.24 296.95 C 181.36 294.45 185.34 294.89 188.92 296.03 C 190.18 296.95 191.39 297.94 192.61 298.92 C 192.18 300.37 191.75 301.81 191.32 303.26 C 186.62 305.59 181.46 306.67 176.28 307.25 C 172.97 306.05 169.32 306.11 166.05 304.96 C 164.10 302.66 162.61 299.29 163.77 296.30 C 167.08 299.56 172.00 298.84 176.19 298.45 L 177.15 297.57 C 177.42 297.42 177.96 297.11 178.24 296.95 Z"
    fill="#0084ac"
    opacity="1.00"
    stroke="#0084ac"
    stroke-width="0.25"
  />
<path
    d="M 291.04 298.77 C 295.23 298.29 299.28 297.01 303.08 295.21 C 303.53 295.19 304.42 295.14 304.87 295.11 C 303.06 304.12 302.68 313.45 299.51 322.15 C 298.88 321.81 297.63 321.14 297.00 320.80 C 300.36 315.78 300.96 308.66 297.41 303.58 C 295.95 301.23 293.39 300.01 291.04 298.77 Z"
    fill="#00b1dd"
    opacity="1.00"
    stroke="#00b1dd"
    stroke-width="0.25"
  />
<path
    d="M 194.03 300.05 C 194.82 300.68 195.60 301.32 196.40 301.96 C 195.54 307.99 195.01 314.07 194.81 320.16 C 196.09 320.85 197.37 321.58 198.61 322.36 C 203.15 325.04 208.63 325.32 213.69 326.37 C 220.90 327.27 228.16 327.44 235.41 327.24 L 236.29 327.86 C 226.26 328.97 216.12 328.28 206.19 326.62 C 203.64 326.19 201.08 325.82 198.56 325.23 C 197.30 324.68 196.04 324.11 194.80 323.54 C 195.69 337.15 197.56 351.06 203.51 363.48 C 204.59 363.71 205.66 363.97 206.72 364.26 C 210.00 365.48 213.35 366.52 216.81 367.08 C 214.90 368.18 212.68 367.99 210.57 367.94 C 210.45 368.39 210.21 369.29 210.09 369.75 C 209.90 369.26 209.53 368.28 209.35 367.79 C 207.55 367.12 205.72 366.51 203.87 366.02 C 207.70 375.94 213.34 385.07 219.78 393.50 C 219.35 393.51 218.51 393.52 218.08 393.53 C 209.71 384.65 204.64 373.39 199.78 362.35 C 197.85 355.58 194.93 349.05 194.11 342.00 C 193.58 337.65 193.15 333.26 191.80 329.07 C 191.19 330.10 190.59 331.13 189.99 332.16 C 189.86 330.60 189.73 329.05 189.59 327.51 C 182.83 327.84 175.69 326.21 170.99 321.03 C 169.94 324.31 167.92 327.39 164.72 328.89 C 164.14 327.85 163.62 326.80 163.16 325.71 C 167.19 324.81 168.53 320.66 170.42 317.51 C 173.41 321.05 177.20 324.72 182.12 324.96 C 184.84 325.42 188.35 325.61 190.09 322.99 C 190.68 320.12 187.40 318.59 185.24 317.56 C 181.70 316.60 177.81 315.05 176.35 311.36 C 180.82 313.16 185.17 315.27 189.24 317.86 C 189.56 314.70 189.77 311.50 190.78 308.47 C 190.43 308.56 189.74 308.74 189.39 308.83 C 189.10 308.46 188.51 307.74 188.22 307.38 C 189.63 307.16 191.05 306.95 192.47 306.74 C 192.80 304.46 193.29 302.22 194.03 300.05 Z"
    fill="#034058"
    opacity="1.00"
    stroke="#034058"
    stroke-width="0.25"
  />
<path
    d="M 281.61 301.59 C 285.08 301.29 289.10 300.48 292.06 302.86 C 296.62 305.91 296.95 312.71 294.05 317.01 C 290.54 322.40 285.73 326.87 280.56 330.65 C 278.36 332.14 276.10 333.55 274.12 335.32 C 272.79 335.07 271.46 334.83 270.14 334.59 C 269.96 331.71 270.81 328.95 272.11 326.42 C 275.83 320.56 279.68 314.71 282.32 308.26 C 283.17 306.05 282.13 303.74 281.61 301.59 Z"
    fill="#008aad"
    opacity="1.00"
    stroke="#008aad"
    stroke-width="0.25"
  />
<path
    d="M 277.09 312.17 C 278.84 308.75 279.90 305.03 281.61 301.59 C 282.13 303.74 283.17 306.05 282.32 308.26 C 279.68 314.71 275.83 320.56 272.11 326.42 C 271.46 326.29 270.16 326.02 269.50 325.89 C 271.82 321.19 274.73 316.83 277.09 312.17 Z"
    fill="#00708c"
    opacity="1.00"
    stroke="#00708c"
    stroke-width="0.25"
  />
<path
    d="M 196.40 301.96 C 197.41 302.94 198.88 303.61 199.42 305.00 C 199.54 310.80 198.14 316.54 198.61 322.36 C 197.37 321.58 196.09 320.85 194.81 320.16 C 195.01 314.07 195.54 307.99 196.40 301.96 Z"
    fill="#e5fbf7"
    opacity="1.00"
    stroke="#e5fbf7"
    stroke-width="0.25"
  />
<path
    d="M 199.92 306.43 C 201.80 306.32 203.49 307.20 205.19 307.89 C 219.34 313.74 234.78 315.70 250.01 315.51 C 257.26 315.35 264.60 315.99 271.77 314.64 C 271.74 314.91 271.70 315.44 271.67 315.71 C 261.75 324.48 247.66 324.44 235.41 327.24 C 228.16 327.44 220.90 327.27 213.69 326.37 C 208.63 325.32 203.15 325.04 198.61 322.36 C 199.73 317.14 199.11 311.71 199.92 306.43 Z"
    fill="#00b1e5"
    opacity="1.00"
    stroke="#00b1e5"
    stroke-width="0.25"
  />
<path
    d="M 189.39 308.83 C 189.74 308.74 190.43 308.56 190.78 308.47 C 189.77 311.50 189.56 314.70 189.24 317.86 C 185.17 315.27 180.82 313.16 176.35 311.36 C 176.23 311.14 176.00 310.69 175.88 310.47 C 180.44 310.67 184.99 309.98 189.39 308.83 Z"
    fill="#98d8e2"
    opacity="1.00"
    stroke="#98d8e2"
    stroke-width="0.25"
  />
<path
    d="M 158.38 308.57 C 160.45 309.79 161.39 312.07 162.53 314.06 C 161.67 315.59 161.27 319.80 158.68 318.52 C 158.74 315.20 158.88 311.87 158.38 308.57 Z"
    fill="#003d54"
    opacity="1.00"
    stroke="#003d54"
    stroke-width="0.25"
  />
<path
    d="M 361.89 312.74 C 364.83 317.60 365.05 323.44 367.21 328.62 C 372.13 328.57 376.99 326.60 380.21 322.80 C 380.82 328.92 376.57 333.75 371.84 336.95 C 371.22 336.87 369.99 336.71 369.37 336.63 C 364.95 329.42 362.80 321.09 361.89 312.74 Z"
    fill="#eeb904"
    opacity="1.00"
    stroke="#eeb904"
    stroke-width="0.25"
  />
<path
    d="M 389.75 315.40 C 390.95 318.99 389.33 323.02 391.40 326.39 C 383.45 340.74 368.25 349.34 352.88 353.63 C 353.68 352.56 354.23 351.07 355.66 350.68 C 360.46 349.00 365.34 347.24 369.37 344.04 C 368.15 342.89 366.76 344.11 365.56 344.60 C 360.65 347.29 355.36 349.46 349.72 349.94 C 350.09 349.44 350.84 348.45 351.21 347.96 C 359.45 345.76 367.19 341.91 374.23 337.13 C 376.99 335.15 379.42 332.74 381.73 330.25 C 384.27 331.41 385.63 328.04 385.03 326.01 C 386.91 322.62 388.83 319.20 389.75 315.40 Z"
    fill="#053e4e"
    opacity="1.00"
    stroke="#053e4e"
    stroke-width="0.25"
  />
<path
    d="M 297.00 320.80 C 297.63 321.14 298.88 321.81 299.51 322.15 C 296.66 332.16 293.89 342.42 288.02 351.16 C 288.66 347.43 291.11 343.02 288.54 339.53 C 287.16 337.92 287.21 335.77 287.11 333.79 C 285.84 334.17 284.53 334.24 283.28 333.75 C 284.69 332.56 286.04 331.29 287.42 330.06 C 291.07 327.49 294.38 324.42 297.00 320.80 Z"
    fill="#00c2f3"
    opacity="1.00"
    stroke="#00c2f3"
    stroke-width="0.25"
  />
<path
    d="M 236.29 327.86 C 247.25 326.54 258.28 325.22 268.94 322.27 C 268.84 322.64 268.63 323.39 268.52 323.77 C 267.77 325.56 266.87 327.28 266.02 329.02 C 263.94 329.14 261.86 329.24 259.81 329.57 C 257.36 329.92 255.09 330.99 253.20 332.56 C 254.04 327.48 260.26 328.79 263.94 327.84 C 265.72 328.04 266.40 326.35 266.54 324.88 C 255.90 325.57 245.65 328.97 235.00 329.64 C 228.72 329.86 222.42 329.85 216.14 329.53 C 210.99 329.28 206.03 327.15 200.83 327.82 C 200.69 329.57 200.56 331.34 200.54 333.11 C 200.32 331.03 200.22 328.94 200.11 326.87 C 202.13 326.76 204.16 326.64 206.19 326.62 C 216.12 328.28 226.26 328.97 236.29 327.86 Z"
    fill="#2cdcff"
    opacity="1.00"
    stroke="#2cdcff"
    stroke-width="0.25"
  />
<path
    d="M 194.80 323.54 C 196.04 324.11 197.30 324.68 198.56 325.23 C 199.12 338.61 202.70 351.57 206.72 364.26 C 205.66 363.97 204.59 363.71 203.51 363.48 C 197.56 351.06 195.69 337.15 194.80 323.54 Z"
    fill="#eefcfc"
    opacity="1.00"
    stroke="#eefcfc"
    stroke-width="0.25"
  />
<path
    d="M 266.02 329.02 C 266.87 327.28 267.77 325.56 268.52 323.77 C 268.77 324.30 269.26 325.36 269.50 325.89 C 270.16 326.02 271.46 326.29 272.11 326.42 C 270.81 328.95 269.96 331.71 270.14 334.59 C 271.46 334.83 272.79 335.07 274.12 335.32 C 269.40 339.45 264.75 343.80 259.36 347.03 C 260.34 343.66 260.43 340.16 260.80 336.71 C 262.44 334.43 264.57 332.55 266.10 330.18 C 264.76 330.00 263.42 329.84 262.08 329.71 C 261.51 329.67 260.38 329.60 259.81 329.57 C 261.86 329.24 263.94 329.14 266.02 329.02 Z"
    fill="#007c9a"
    opacity="1.00"
    stroke="#007c9a"
    stroke-width="0.25"
  />
<path
    d="M 198.56 325.23 C 201.08 325.82 203.64 326.19 206.19 326.62 C 204.16 326.64 202.13 326.76 200.11 326.87 C 200.22 328.94 200.32 331.03 200.54 333.11 C 201.02 337.42 201.81 341.72 203.09 345.88 C 204.88 351.64 205.64 357.87 208.99 363.02 C 210.00 364.78 212.30 364.67 214.01 365.25 C 223.48 367.61 233.34 367.87 243.04 367.10 C 248.51 366.71 253.87 365.21 259.39 365.36 C 245.49 368.73 230.94 368.73 216.81 367.08 C 213.35 366.52 210.00 365.48 206.72 364.26 C 202.70 351.57 199.12 338.61 198.56 325.23 Z"
    fill="#41c4e0"
    opacity="1.00"
    stroke="#41c4e0"
    stroke-width="0.25"
  />
<path
    d="M 235.00 329.64 C 245.65 328.97 255.90 325.57 266.54 324.88 C 266.40 326.35 265.72 328.04 263.94 327.84 C 260.26 328.79 254.04 327.48 253.20 332.56 C 251.53 334.99 248.86 337.00 248.66 340.16 C 251.75 341.09 254.39 338.91 257.39 338.66 C 258.74 344.40 251.66 347.44 252.19 352.90 C 257.57 354.58 261.60 350.09 264.70 346.43 C 265.68 347.45 266.74 348.40 267.94 349.18 C 269.20 347.34 270.56 345.57 272.04 343.89 C 272.92 345.50 273.80 347.12 274.64 348.76 C 278.24 349.67 280.01 345.87 280.49 342.96 C 281.29 339.78 279.69 335.55 283.28 333.75 C 284.53 334.24 285.84 334.17 287.11 333.79 C 287.21 335.77 287.16 337.92 288.54 339.53 C 291.11 343.02 288.66 347.43 288.02 351.16 C 286.74 353.60 285.30 355.99 283.30 357.91 C 275.70 361.46 267.66 363.95 259.39 365.36 C 253.87 365.21 248.51 366.71 243.04 367.10 C 233.34 367.87 223.48 367.61 214.01 365.25 C 212.30 364.67 210.00 364.78 208.99 363.02 C 205.64 357.87 204.88 351.64 203.09 345.88 C 201.81 341.72 201.02 337.42 200.54 333.11 C 200.56 331.34 200.69 329.57 200.83 327.82 C 206.03 327.15 210.99 329.28 216.14 329.53 C 222.42 329.85 228.72 329.86 235.00 329.64 Z"
    fill="#00dfff"
    opacity="1.00"
    stroke="#00dfff"
    stroke-width="0.25"
  />
<path
    d="M 381.73 330.25 C 382.65 328.70 383.72 327.26 385.03 326.01 C 385.63 328.04 384.27 331.41 381.73 330.25 Z"
    fill="#314524"
    opacity="1.00"
    stroke="#314524"
    stroke-width="0.25"
  />
<path
    d="M 189.99 332.16 C 190.59 331.13 191.19 330.10 191.80 329.07 C 193.15 333.26 193.58 337.65 194.11 342.00 C 194.93 349.05 197.85 355.58 199.78 362.35 C 204.64 373.39 209.71 384.65 218.08 393.53 C 218.51 393.52 219.35 393.51 219.78 393.50 C 221.36 395.43 222.99 397.31 224.58 399.23 C 224.54 399.70 224.44 400.64 224.39 401.11 C 226.47 405.76 232.58 407.83 233.23 413.26 C 223.91 407.34 216.56 398.72 210.42 389.63 C 198.90 372.58 192.26 352.54 189.99 332.16 Z"
    fill="#035367"
    opacity="1.00"
    stroke="#035367"
    stroke-width="0.25"
  />
<path
    d="M 253.20 332.56 C 255.09 330.99 257.36 329.92 259.81 329.57 C 260.38 329.60 261.51 329.67 262.08 329.71 C 260.51 330.92 258.76 332.00 257.56 333.62 C 257.16 335.27 257.38 336.98 257.39 338.66 C 254.39 338.91 251.75 341.09 248.66 340.16 C 248.86 337.00 251.53 334.99 253.20 332.56 Z"
    fill="#0b3b51"
    opacity="1.00"
    stroke="#0b3b51"
    stroke-width="0.25"
  />
<path
    d="M 262.08 329.71 C 263.42 329.84 264.76 330.00 266.10 330.18 C 264.57 332.55 262.44 334.43 260.80 336.71 C 260.43 340.16 260.34 343.66 259.36 347.03 C 264.75 343.80 269.40 339.45 274.12 335.32 C 276.10 333.55 278.36 332.14 280.56 330.65 C 280.47 331.71 280.38 332.77 280.29 333.83 C 282.51 332.30 284.83 330.87 287.42 330.06 C 286.04 331.29 284.69 332.56 283.28 333.75 C 279.69 335.55 281.29 339.78 280.49 342.96 C 280.01 345.87 278.24 349.67 274.64 348.76 C 273.80 347.12 272.92 345.50 272.04 343.89 C 270.56 345.57 269.20 347.34 267.94 349.18 C 266.74 348.40 265.68 347.45 264.70 346.43 C 261.60 350.09 257.57 354.58 252.19 352.90 C 251.66 347.44 258.74 344.40 257.39 338.66 C 257.38 336.98 257.16 335.27 257.56 333.62 C 258.76 332.00 260.51 330.92 262.08 329.71 Z"
    fill="#025672"
    opacity="1.00"
    stroke="#025672"
    stroke-width="0.25"
  />
<path
    d="M 365.56 344.60 C 366.76 344.11 368.15 342.89 369.37 344.04 C 365.34 347.24 360.46 349.00 355.66 350.68 C 354.23 351.07 353.68 352.56 352.88 353.63 L 352.77 353.79 C 343.47 356.82 333.75 358.25 324.02 359.04 C 319.13 370.10 313.05 380.71 305.42 390.12 C 305.40 389.16 305.37 388.20 305.36 387.24 C 304.24 386.71 303.13 386.17 302.02 385.64 C 308.61 376.64 314.21 366.90 318.69 356.68 C 319.50 354.71 321.83 354.29 323.51 353.34 C 324.00 351.08 324.54 348.84 325.08 346.60 C 325.08 348.68 325.17 350.76 325.25 352.84 C 333.52 354.10 341.63 351.22 349.72 349.94 C 355.36 349.46 360.65 347.29 365.56 344.60 Z"
    fill="#05455b"
    opacity="1.00"
    stroke="#05455b"
    stroke-width="0.25"
  />
<path
    d="M 259.39 365.36 C 267.66 363.95 275.70 361.46 283.30 357.91 C 282.84 358.99 282.37 360.08 281.91 361.17 C 268.10 367.24 252.96 369.50 238.00 370.32 C 229.14 370.66 220.30 369.92 211.55 368.54 C 211.50 369.94 211.47 371.34 211.45 372.75 C 211.11 372.00 210.43 370.50 210.09 369.75 C 210.21 369.29 210.45 368.39 210.57 367.94 C 212.68 367.99 214.90 368.18 216.81 367.08 C 230.94 368.73 245.49 368.73 259.39 365.36 Z"
    fill="#196b8a"
    opacity="1.00"
    stroke="#196b8a"
    stroke-width="0.25"
  />
<path
    d="M 238.00 370.32 C 252.96 369.50 268.10 367.24 281.91 361.17 C 278.23 366.73 275.09 372.67 270.92 377.90 C 264.83 386.04 257.75 393.43 249.83 399.82 C 245.52 402.99 240.47 404.91 235.36 406.37 C 225.27 396.92 217.35 385.21 211.45 372.75 C 211.47 371.34 211.50 369.94 211.55 368.54 C 220.30 369.92 229.14 370.66 238.00 370.32 Z"
    fill="#00bde7"
    opacity="1.00"
    stroke="#00bde7"
    stroke-width="0.25"
  />
<path
    d="M 203.87 366.02 C 205.72 366.51 207.55 367.12 209.35 367.79 C 209.53 368.28 209.90 369.26 210.09 369.75 C 210.43 370.50 211.11 372.00 211.45 372.75 C 217.35 385.21 225.27 396.92 235.36 406.37 L 234.64 408.00 C 230.72 405.78 227.55 402.56 224.58 399.23 C 222.99 397.31 221.36 395.43 219.78 393.50 C 213.34 385.07 207.70 375.94 203.87 366.02 Z"
    fill="#ecf8fb"
    opacity="1.00"
    stroke="#ecf8fb"
    stroke-width="0.25"
  />
<path
    d="M 276.59 408.51 C 286.37 402.51 294.72 394.45 302.02 385.64 C 303.13 386.17 304.24 386.71 305.36 387.24 C 305.37 388.20 305.40 389.16 305.42 390.12 C 301.69 394.26 298.14 398.59 294.15 402.47 C 296.85 408.32 299.16 414.49 298.63 421.06 C 298.52 424.57 298.13 428.26 296.05 431.22 C 294.88 429.97 293.73 428.70 292.56 427.47 L 291.76 426.12 L 292.10 424.94 C 293.33 425.90 294.55 426.88 295.79 427.86 C 296.04 422.55 295.27 417.29 294.85 412.01 C 294.57 408.86 294.05 405.59 292.24 402.92 C 289.67 404.67 287.14 406.48 284.68 408.37 C 284.55 409.21 284.43 410.06 284.32 410.91 C 283.33 411.19 282.35 411.47 281.38 411.75 C 281.50 413.18 281.62 414.60 281.80 416.04 C 280.62 414.84 279.48 413.62 278.36 412.37 C 276.36 413.33 273.45 414.25 273.38 416.92 C 274.82 420.77 277.51 424.46 281.52 425.91 C 281.04 426.72 280.56 427.52 280.06 428.32 C 276.24 425.53 273.95 421.20 271.37 417.33 C 269.30 418.23 267.20 419.07 265.07 419.83 C 271.18 424.47 274.63 431.86 276.46 439.14 C 275.58 439.09 273.82 439.00 272.95 438.95 C 273.20 437.29 273.81 435.53 273.04 433.91 C 271.07 428.70 267.97 423.73 263.55 420.27 C 259.60 420.97 255.32 421.09 251.59 422.71 C 248.75 421.19 245.28 421.47 242.59 419.54 C 239.52 417.56 236.33 415.78 233.34 413.68 L 233.23 413.26 C 232.58 407.83 226.47 405.76 224.39 401.11 C 224.44 400.64 224.54 399.70 224.58 399.23 C 227.55 402.56 230.72 405.78 234.64 408.00 C 238.12 411.25 242.49 413.20 246.66 415.39 C 249.86 416.94 253.54 418.60 257.12 417.27 C 263.89 415.05 270.40 412.04 276.59 408.51 Z"
    fill="#033e59"
    opacity="1.00"
    stroke="#033e59"
    stroke-width="0.25"
  />
<path
    d="M 284.68 408.37 C 287.14 406.48 289.67 404.67 292.24 402.92 C 294.05 405.59 294.57 408.86 294.85 412.01 C 295.27 417.29 296.04 422.55 295.79 427.86 C 294.55 426.88 293.33 425.90 292.10 424.94 L 291.76 426.12 C 288.65 421.37 286.50 416.12 284.32 410.91 C 284.43 410.06 284.55 409.21 284.68 408.37 Z"
    fill="#005473"
    opacity="1.00"
    stroke="#005473"
    stroke-width="0.25"
  />
<path
    d="M 281.38 411.75 C 282.35 411.47 283.33 411.19 284.32 410.91 C 286.50 416.12 288.65 421.37 291.76 426.12 L 292.56 427.47 C 289.20 426.58 288.38 422.35 285.91 420.21 C 285.03 420.61 284.16 421.03 283.29 421.44 C 282.90 420.24 282.52 419.06 282.17 417.86 C 282.08 417.40 281.90 416.49 281.80 416.04 C 281.62 414.60 281.50 413.18 281.38 411.75 Z"
    fill="#acc0cb"
    opacity="1.00"
    stroke="#acc0cb"
    stroke-width="0.25"
  />
<path
    d="M 273.38 416.92 C 273.45 414.25 276.36 413.33 278.36 412.37 C 279.48 413.62 280.62 414.84 281.80 416.04 C 281.90 416.49 282.08 417.40 282.17 417.86 C 282.36 420.55 282.28 423.30 281.52 425.91 C 277.51 424.46 274.82 420.77 273.38 416.92 Z"
    fill="#005278"
    opacity="1.00"
    stroke="#005278"
    stroke-width="0.25"
  />
<path
    d="M 265.07 419.83 C 267.20 419.07 269.30 418.23 271.37 417.33 C 273.95 421.20 276.24 425.53 280.06 428.32 C 280.56 427.52 281.04 426.72 281.52 425.91 C 282.28 423.30 282.36 420.55 282.17 417.86 C 282.52 419.06 282.90 420.24 283.29 421.44 C 284.16 421.03 285.03 420.61 285.91 420.21 C 288.38 422.35 289.20 426.58 292.56 427.47 C 293.73 428.70 294.88 429.97 296.05 431.22 C 298.13 428.26 298.52 424.57 298.63 421.06 C 301.38 418.95 304.86 420.25 308.01 420.29 C 323.51 420.90 339.12 422.50 353.93 427.33 C 355.07 427.53 355.49 428.56 355.93 429.50 C 330.16 434.83 303.77 437.62 277.41 437.51 C 277.17 437.92 276.70 438.73 276.46 439.14 C 274.63 431.86 271.18 424.47 265.07 419.83 Z"
    fill="#9bacb9"
    opacity="1.00"
    stroke="#9bacb9"
    stroke-width="0.25"
  />
<path
    d="M 198.78 420.73 C 213.37 420.06 227.97 419.11 242.59 419.54 C 245.28 421.47 248.75 421.19 251.59 422.71 C 255.03 427.81 259.04 432.66 264.35 435.93 C 261.13 437.59 257.46 437.21 253.98 437.27 C 240.68 437.28 227.35 437.71 214.08 436.65 C 206.47 436.87 198.96 435.64 191.37 435.43 C 179.89 434.22 168.23 433.40 157.23 429.57 C 157.45 427.15 160.20 426.94 162.00 426.15 C 173.89 422.35 186.45 421.83 198.78 420.73 Z"
    fill="#9faab3"
    opacity="1.00"
    stroke="#9faab3"
    stroke-width="0.25"
  />
<path
    d="M 251.59 422.71 C 255.32 421.09 259.60 420.97 263.55 420.27 C 267.97 423.73 271.07 428.70 273.04 433.91 C 273.81 435.53 273.20 437.29 272.95 438.95 C 270.02 438.15 266.98 437.50 264.35 435.93 C 259.04 432.66 255.03 427.81 251.59 422.71 Z"
    fill="#005875"
    opacity="1.00"
    stroke="#005875"
    stroke-width="0.25"
  />
</svg>
